<svg width="310" height="94" viewBox="0 0 310 94" fill="none" xmlns="http://www.w3.org/2000/svg">
<path d="M51.12 61.904C50.864 61.904 50.608 61.8827 50.352 61.84C50.096 61.84 49.8187 61.8187 49.52 61.776C49.4773 61.776 49.3707 61.712 49.2 61.584C49.0293 61.4987 48.9013 61.456 48.816 61.456C48.56 61.456 48.2827 61.4347 47.984 61.392C47.728 61.392 47.4507 61.3707 47.152 61.328C47.1093 61.2853 47.0667 61.2213 47.024 61.136C47.024 61.0933 46.9813 61.072 46.896 61.072C46.8533 61.072 46.832 61.072 46.832 61.072C46.8747 61.1147 46.8747 61.136 46.832 61.136C46.7893 61.136 46.6827 61.0933 46.512 61.008C46.384 60.9227 46.2773 60.8587 46.192 60.816V60.688C46.0213 60.6453 45.9147 60.5813 45.872 60.496C45.8293 60.4533 45.7867 60.432 45.744 60.432H45.616C45.5307 60.432 45.488 60.4107 45.488 60.368C45.3173 60.2827 45.104 60.1547 44.848 59.984C44.592 59.856 44.4213 59.728 44.336 59.6C44.1653 59.5573 44.0587 59.4933 44.016 59.408C43.9733 59.3653 43.9093 59.3013 43.824 59.216C43.7813 59.1307 43.7387 59.088 43.696 59.088C43.696 59.1307 43.6747 59.1307 43.632 59.088C43.4613 58.832 43.248 58.6187 42.992 58.448C42.992 58.4053 42.9707 58.3627 42.928 58.32C42.928 58.32 42.928 58.2987 42.928 58.256C42.8427 58.256 42.7787 58.2347 42.736 58.192C42.6933 58.1067 42.672 58.0427 42.672 58C42.672 57.9147 42.6293 57.872 42.544 57.872C42.5013 57.6587 42.4373 57.5093 42.352 57.424C42.2667 57.3387 42.1813 57.2107 42.096 57.04C42.0533 56.9547 42.032 56.8693 42.032 56.784C42.032 56.656 41.9893 56.592 41.904 56.592V56.528C41.9467 56.4427 41.8827 56.208 41.712 55.824C41.584 55.3973 41.52 55.0347 41.52 54.736L41.392 54.672C41.264 54.4587 41.1787 54.2027 41.136 53.904C41.136 53.6053 41.1573 53.3067 41.2 53.008C41.2853 52.6667 41.2853 52.5173 41.2 52.56C41.1147 52.6027 41.1147 52.3893 41.2 51.92L41.648 51.024C41.648 50.9387 41.6267 50.8533 41.584 50.768C41.5413 50.6827 41.52 50.6187 41.52 50.576C41.52 50.5333 41.5413 50.4907 41.584 50.448C41.6267 50.4053 41.648 50.3627 41.648 50.32C41.6907 50.2347 41.712 50.1067 41.712 49.936C41.712 49.7653 41.7333 49.6587 41.776 49.616C41.8187 49.5307 41.8827 49.4667 41.968 49.424C42.0533 49.3387 42.1173 49.2747 42.16 49.232L42.48 48.464C42.5653 48.3787 42.6293 48.3147 42.672 48.272C42.7573 48.1867 42.8213 48.1013 42.864 48.016C42.9493 47.888 43.0133 47.7813 43.056 47.696C43.0987 47.568 43.1627 47.44 43.248 47.312C43.2907 47.2267 43.3547 47.1413 43.44 47.056C43.568 46.9707 43.6533 46.9067 43.696 46.864C43.9093 46.736 44.08 46.672 44.208 46.672C44.3787 46.672 44.4853 46.8427 44.528 47.184L44.464 47.504C44.2933 47.7173 44.1227 47.9093 43.952 48.08C43.7813 48.208 43.5893 48.3573 43.376 48.528C43.376 48.5707 43.3547 48.6347 43.312 48.72C43.312 48.7627 43.312 48.8267 43.312 48.912C43.2267 48.912 43.184 48.9547 43.184 49.04C43.184 49.0827 43.1627 49.1467 43.12 49.232C43.12 49.2747 43.056 49.36 42.928 49.488C42.8853 49.5733 42.8427 49.68 42.8 49.808C42.8 49.8933 42.7787 49.9787 42.736 50.064L42.544 50.192L42.48 51.728C42.5227 51.7707 42.5653 51.7707 42.608 51.728C42.6507 51.8133 42.672 51.9413 42.672 52.112V52.176L42.608 52.24V52.752C42.5653 52.7947 42.544 52.8373 42.544 52.88C42.544 52.9227 42.5653 52.9867 42.608 53.072C42.6507 53.1147 42.672 53.1787 42.672 53.264C42.6293 53.3067 42.608 53.3707 42.608 53.456C42.608 53.5413 42.6507 53.6267 42.736 53.712V53.904C42.8213 54.032 42.928 54.16 43.056 54.288C43.184 54.3733 43.2907 54.4587 43.376 54.544L43.888 54.736C44.656 55.2907 45.232 55.6747 45.616 55.888C46 56.1013 46.64 56.336 47.536 56.592C47.8773 56.6773 48.2187 56.784 48.56 56.912C48.9013 56.9973 49.2427 57.04 49.584 57.04C49.6267 57.04 49.648 57.0613 49.648 57.104C49.648 57.104 49.6693 57.104 49.712 57.104C49.8827 57.104 50.032 57.1253 50.16 57.168C50.3307 57.2107 50.5013 57.232 50.672 57.232C50.7147 57.232 50.7573 57.232 50.8 57.232C50.8427 57.1893 50.8853 57.168 50.928 57.168C51.0133 57.168 51.0773 57.1893 51.12 57.232C51.1627 57.232 51.2053 57.232 51.248 57.232C51.5893 57.232 51.9307 57.232 52.272 57.232C52.6133 57.232 52.9333 57.2107 53.232 57.168C53.5733 57.168 53.9147 57.1253 54.256 57.04C54.5973 56.9547 54.9173 56.912 55.216 56.912C55.8133 56.8693 56.3893 56.7627 56.944 56.592C57.5413 56.3787 58.1173 56.1867 58.672 56.016C58.7147 55.9733 59.0773 55.824 59.76 55.568C60.4853 55.2693 61.232 54.9493 62 54.608C62.1707 54.096 62.256 53.4773 62.256 52.752C62.256 51.5573 62 50.4907 61.488 49.552C61.488 49.552 61.3813 49.488 61.168 49.36C60.9547 49.1893 60.8267 49.104 60.784 49.104V48.976C60.784 48.7627 60.6773 48.656 60.464 48.656C60.2507 48.6133 60.0587 48.4853 59.888 48.272C59.8027 48.144 59.696 48.0373 59.568 47.952V47.888C59.44 47.8027 59.4187 47.7387 59.504 47.696C59.632 47.6107 59.7173 47.5467 59.76 47.504L59.632 47.376H59.568C59.4827 47.2907 59.376 47.2267 59.248 47.184C59.12 47.1413 59.0133 47.056 58.928 46.928L58.608 46.672C58.5653 46.5867 58.48 46.544 58.352 46.544C58.224 46.544 58.1173 46.5227 58.032 46.48C57.8613 46.352 57.6693 46.2027 57.456 46.032C57.2427 45.8613 57.0293 45.7333 56.816 45.648H56.752C56.5813 45.5627 56.4107 45.456 56.24 45.328C56.112 45.2 55.9413 45.0933 55.728 45.008C55.6853 44.9227 55.6213 44.9227 55.536 45.008C55.4933 45.0507 55.4507 45.0507 55.408 45.008C55.2373 44.9227 55.088 44.7947 54.96 44.624C54.832 44.4107 54.6613 44.304 54.448 44.304H54.384C54.256 44.2187 54.1493 44.0907 54.064 43.92C54.0213 43.7067 53.9573 43.5573 53.872 43.472C53.488 43.2587 53.104 43.1093 52.72 43.024C52.336 42.9387 51.952 42.832 51.568 42.704C51.312 42.576 50.992 42.512 50.608 42.512C50.2667 42.4693 49.9893 42.4267 49.776 42.384C49.52 42.2987 49.392 42.1707 49.392 42C49.392 41.7867 49.6053 41.5733 50.032 41.36C50.2027 41.2747 50.3947 41.232 50.608 41.232C50.8213 41.1893 51.0133 41.168 51.184 41.168C51.6533 41.168 52.3787 41.04 53.36 40.784C54.384 40.528 55.536 40.1867 56.816 39.76C58.096 39.2907 59.3333 38.8 60.528 38.288C60.784 38.2027 60.976 38.1173 61.104 38.032C61.2747 37.9467 61.4027 37.968 61.488 38.096C61.4027 38.096 61.36 38.16 61.36 38.288C61.5733 38.288 61.7013 38.224 61.744 38.096C61.8293 37.9253 61.9147 37.7547 62 37.584H62.064L63.28 36.944C63.4507 36.9013 63.6 36.9227 63.728 37.008C63.8987 37.0507 64.048 37.0293 64.176 36.944C64.1333 36.8587 64.0693 36.7947 63.984 36.752C63.9413 36.6667 63.984 36.5813 64.112 36.496C64.1973 36.4107 64.2613 36.368 64.304 36.368C64.56 36.1973 64.7947 36.0907 65.008 36.048C65.264 35.9627 65.456 35.792 65.584 35.536C66.2667 35.0667 66.8427 34.576 67.312 34.064C67.7813 33.5093 68.016 32.9973 68.016 32.528C68.016 31.9307 67.5893 31.4187 66.736 30.992C65.9253 30.5227 64.4533 30.1387 62.32 29.84C62.2347 29.84 62.1493 29.84 62.064 29.84C61.9787 29.7973 61.8933 29.776 61.808 29.776C61.2533 29.776 60.72 29.648 60.208 29.392C60.2507 29.5627 60.1653 29.648 59.952 29.648C59.3547 29.6053 58.7573 29.584 58.16 29.584C57.5627 29.5413 56.9867 29.52 56.432 29.52C55.4933 29.52 54.6187 29.5413 53.808 29.584C53.04 29.6267 52.4853 29.6693 52.144 29.712C51.8027 29.7547 51.44 29.7973 51.056 29.84C50.7147 29.84 50.3733 29.8827 50.032 29.968C49.776 29.8827 49.52 29.9253 49.264 30.096H49.2C48.9013 30.1387 48.6027 30.1813 48.304 30.224C48.0053 30.2667 47.6853 30.3307 47.344 30.416C47.1733 30.4587 46.9813 30.5013 46.768 30.544C46.5547 30.544 46.3413 30.5867 46.128 30.672L44.848 30.928C44.6773 31.056 44.4853 31.1627 44.272 31.248C44.1013 31.2907 43.9093 31.2907 43.696 31.248H43.632L42.416 31.568H42.352C42.224 31.568 42.0747 31.4827 41.904 31.312C41.776 31.0987 41.6907 30.9067 41.648 30.736C41.6053 30.992 41.5413 31.2693 41.456 31.568C41.3707 31.8667 41.2213 32.016 41.008 32.016L39.216 32.592C39.0453 32.6347 38.8533 32.656 38.64 32.656C38.4267 32.656 38.2133 32.656 38 32.656C37.7867 32.656 37.616 32.6773 37.488 32.72C37.36 32.7627 37.2747 32.8693 37.232 33.04C37.232 33.168 37.168 33.2747 37.04 33.36C36.8693 33.5307 36.656 33.6587 36.4 33.744C36.144 33.7867 35.9093 33.8507 35.696 33.936H35.632C35.5467 33.936 35.4187 33.8933 35.248 33.808C35.12 33.7227 35.0133 33.7013 34.928 33.744C34.8853 33.7867 34.8427 33.8933 34.8 34.064C34.7573 34.2347 34.6933 34.3413 34.608 34.384V34.448C34.352 34.5333 34.0747 34.64 33.776 34.768C33.4773 34.896 33.2 35.024 32.944 35.152C32.688 35.28 32.3893 35.4293 32.048 35.6C31.7493 35.728 31.4933 35.8133 31.28 35.856C31.1947 35.856 31.152 35.7707 31.152 35.6C31.1947 35.4293 31.1733 35.3867 31.088 35.472C30.832 35.6 30.576 35.8347 30.32 36.176C30.064 36.5173 29.8293 36.752 29.616 36.88C29.4027 37.0507 29.168 37.136 28.912 37.136C28.6987 37.136 28.4853 37.2213 28.272 37.392C28.144 37.52 28.016 37.7333 27.888 38.032C27.8027 38.288 27.696 38.48 27.568 38.608C27.2267 38.9493 26.8853 39.3547 26.544 39.824C26.5013 39.9093 26.4373 39.9947 26.352 40.08C26.2667 40.1653 26.224 40.272 26.224 40.4H26.16C25.904 40.912 25.776 41.4027 25.776 41.872C25.776 42.8107 26.1173 43.4933 26.8 43.92C27.5253 44.3467 28.336 44.6667 29.232 44.88C29.4027 44.9227 29.552 44.9867 29.68 45.072C29.8507 45.1573 30.0213 45.1787 30.192 45.136C30.3627 45.0507 30.512 45.008 30.64 45.008C30.8533 45.008 31.024 45.0933 31.152 45.264L32.112 45.456C32.624 45.584 32.88 45.712 32.88 45.84C32.88 45.9253 32.752 46.0107 32.496 46.096C32.2827 46.1387 32.0693 46.16 31.856 46.16C31.088 46.16 30.1493 46.0107 29.04 45.712C27.9307 45.3707 26.928 44.88 26.032 44.24C25.136 43.5573 24.624 42.7253 24.496 41.744C24.496 41.7013 24.432 41.5947 24.304 41.424C24.2187 41.2533 24.1547 41.104 24.112 40.976C23.984 40.592 23.92 40.208 23.92 39.824C23.92 39.0987 24.0693 38.416 24.368 37.776C24.7093 37.136 25.1573 36.5387 25.712 35.984C25.9253 35.7707 26.1173 35.6213 26.288 35.536C26.5013 35.4507 26.736 35.3227 26.992 35.152C27.248 34.9813 27.376 34.832 27.376 34.704C27.376 34.576 27.504 34.4267 27.76 34.256C28.1013 34.0427 28.5707 33.7867 29.168 33.488C29.808 33.1893 30.2987 32.9547 30.64 32.784C30.896 32.784 31.1307 32.6773 31.344 32.464C32.1973 32.08 33.0933 31.7387 34.032 31.44C34.9707 31.0987 35.9093 30.7787 36.848 30.48C37.104 30.352 37.36 30.288 37.616 30.288C37.872 30.288 38.064 30.352 38.192 30.48C38.192 30.3947 38.1707 30.3307 38.128 30.288C38.128 30.2027 38.1707 30.1387 38.256 30.096C39.3227 29.7547 40.3893 29.4773 41.456 29.264C42.5227 29.008 43.5467 28.7947 44.528 28.624H44.592C44.72 28.624 44.912 28.5813 45.168 28.496H45.232C45.3173 28.496 45.3813 28.496 45.424 28.496C45.5093 28.4533 45.5947 28.432 45.68 28.432C45.936 28.56 46.192 28.5173 46.448 28.304C47.6 28.0907 48.6667 27.9413 49.648 27.856C50.6293 27.728 51.4613 27.664 52.144 27.664H52.336C52.4213 27.664 52.5067 27.664 52.592 27.664C52.72 27.6213 52.8267 27.6 52.912 27.6H53.552C53.68 27.5573 53.808 27.5573 53.936 27.6C54.1067 27.6 54.2347 27.6 54.32 27.6H54.384C54.896 27.6 55.4293 27.6213 55.984 27.664C56.5813 27.664 57.1787 27.664 57.776 27.664H57.84C58.0107 27.7067 58.1387 27.7707 58.224 27.856C58.352 27.9413 58.5013 27.8987 58.672 27.728C59.824 27.7707 60.976 27.8987 62.128 28.112C62.768 28.1973 63.536 28.368 64.432 28.624C65.3707 28.8373 66.2667 29.1573 67.12 29.584C67.9733 29.968 68.6773 30.4587 69.232 31.056C69.8293 31.6533 70.128 32.3787 70.128 33.232C70.128 33.5733 70.064 33.936 69.936 34.32C69.808 34.704 69.5733 35.0667 69.232 35.408C68.8907 35.7067 68.5493 36.0267 68.208 36.368L67.44 37.072L66.992 37.2L66.48 37.456C65.5413 37.8827 64.5173 38.3733 63.408 38.928C62.2987 39.44 61.1253 39.8453 59.888 40.144L59.312 40.272H59.248V40.336H59.184C59.0987 40.3787 58.992 40.4 58.864 40.4C58.736 40.3573 58.608 40.3787 58.48 40.464C56.3893 41.0187 54.4053 41.4027 52.528 41.616C52.1013 41.6587 51.888 41.744 51.888 41.872C51.888 41.9573 52.0373 42.064 52.336 42.192C52.6773 42.2773 52.9333 42.3627 53.104 42.448C53.9147 42.704 54.768 42.9813 55.664 43.28C56.56 43.536 57.4773 43.856 58.416 44.24C58.672 44.2827 58.928 44.368 59.184 44.496C59.4827 44.624 59.696 44.816 59.824 45.072C59.8667 44.9867 59.9307 44.9653 60.016 45.008C60.1013 45.0507 60.1653 45.072 60.208 45.072C60.7627 45.328 61.296 45.6053 61.808 45.904C62.32 46.2027 62.7893 46.5227 63.216 46.864C63.3013 47.0773 63.344 47.184 63.344 47.184C63.6427 47.184 63.856 47.2693 63.984 47.44C64.112 47.6107 64.2613 47.8027 64.432 48.016C64.9013 48.528 65.264 49.0827 65.52 49.68C65.776 50.2347 65.904 50.832 65.904 51.472C65.904 51.6427 65.8827 51.8133 65.84 51.984C65.84 52.1547 65.8187 52.3467 65.776 52.56C66.7573 52.0053 67.4827 51.28 67.952 50.384C68.0373 50.256 68.144 50.192 68.272 50.192C68.528 50.192 68.6133 50.3413 68.528 50.64C68.3147 51.1947 67.9093 51.8133 67.312 52.496C66.7573 53.136 66.1173 53.6267 65.392 53.968C65.392 54.0107 65.3707 54.0533 65.328 54.096C65.1147 54.608 64.9013 54.992 64.688 55.248C64.6453 55.4187 64.56 55.5467 64.432 55.632C64.3467 55.7173 64.2827 55.824 64.24 55.952L64.176 56.016L63.92 56.144C63.8773 56.1867 63.8347 56.2507 63.792 56.336C63.792 56.4213 63.7493 56.5067 63.664 56.592C63.7493 56.6773 63.728 56.72 63.6 56.72C62.5333 58 61.168 59.0667 59.504 59.92H59.44C59.1413 60.0907 59.0347 60.1333 59.12 60.048C59.2053 60.0053 59.2053 59.9413 59.12 59.856H59.056C58.7147 60.0267 58.5013 60.1547 58.416 60.24C58.288 60.24 58.1387 60.2827 57.968 60.368C57.84 60.4533 57.776 60.496 57.776 60.496H57.456C57.4133 60.496 57.3067 60.5387 57.136 60.624C57.008 60.752 56.9013 60.8373 56.816 60.88C56.6027 60.88 56.4533 60.944 56.368 61.072C56.2827 61.072 56.176 61.072 56.048 61.072C55.92 61.072 55.792 61.0933 55.664 61.136C55.6213 61.1787 55.408 61.2 55.024 61.2C54.6827 61.2427 54.4693 61.2853 54.384 61.328C54.3413 61.3707 54.192 61.4347 53.936 61.52C53.68 61.6053 53.5093 61.648 53.424 61.648C53.3813 61.648 53.3387 61.6267 53.296 61.584C53.296 61.584 53.2747 61.584 53.232 61.584C53.1893 61.584 53.1467 61.6053 53.104 61.648C53.0613 61.7333 52.9973 61.776 52.912 61.776C52.8267 61.776 52.7413 61.7547 52.656 61.712C52.5707 61.6693 52.4853 61.648 52.4 61.648C52.3573 61.648 52.272 61.6693 52.144 61.712C52.0587 61.7973 51.9733 61.84 51.888 61.84C51.8027 61.84 51.7173 61.8187 51.632 61.776C51.5893 61.776 51.504 61.7973 51.376 61.84C51.2907 61.8827 51.2053 61.904 51.12 61.904ZM35.184 62.608C34.8853 62.608 34.736 62.288 34.736 61.648C34.736 61.2213 34.8213 60.688 34.992 60.048C35.2053 59.4507 35.4613 58.7467 35.76 57.936C36.1013 57.6373 36.272 57.2533 36.272 56.784C36.3573 56.8267 36.4 56.8267 36.4 56.784C36.4427 56.6987 36.464 56.656 36.464 56.656C36.5493 56.528 36.592 56.4 36.592 56.272C36.592 56.1013 36.6133 55.952 36.656 55.824C37.424 53.904 38.4053 51.8133 39.6 49.552C39.6853 49.3813 39.7707 49.3387 39.856 49.424C39.984 49.4667 40.0693 49.4453 40.112 49.36C40.1547 49.3173 40.176 49.2107 40.176 49.04C40.176 48.912 40.1547 48.784 40.112 48.656C40.112 48.528 40.176 48.3787 40.304 48.208L41.2 46.608C42.4373 44.3893 43.6747 42.256 44.912 40.208C46.192 38.16 47.3867 36.5813 48.496 35.472L48.688 35.344L48.88 35.024C48.88 35.024 48.9227 35.0027 49.008 34.96C49.0933 34.9173 49.1573 34.9387 49.2 35.024C49.2 35.0667 49.1573 35.152 49.072 35.28C49.0293 35.408 49.008 35.4933 49.008 35.536C49.136 35.7493 49.2853 35.7707 49.456 35.6C49.4987 35.5147 49.4987 35.3227 49.456 35.024C49.4133 34.7253 49.4133 34.576 49.456 34.576C49.5413 34.5333 49.584 34.5333 49.584 34.576C49.6267 34.6187 49.6693 34.64 49.712 34.64C49.7973 34.64 49.84 34.576 49.84 34.448C49.84 34.32 49.8613 34.2347 49.904 34.192C50.3733 34.0213 50.8 33.936 51.184 33.936C51.3973 33.936 51.696 34.0427 52.08 34.256C52.5067 34.4693 52.72 34.768 52.72 35.152C52.72 35.3653 52.6133 35.6213 52.4 35.92C52.3573 35.9627 52.3147 36.048 52.272 36.176C52.2293 36.2613 52.1653 36.3467 52.08 36.432C52.0373 36.4747 51.9947 36.496 51.952 36.496C51.952 36.4533 51.9093 36.4533 51.824 36.496C51.7813 36.5387 51.7173 36.56 51.632 36.56C51.5893 36.5173 51.5253 36.496 51.44 36.496C51.3547 36.496 51.3333 36.56 51.376 36.688C51.4613 36.816 51.4827 36.9013 51.44 36.944C51.3973 36.9867 51.3547 36.9867 51.312 36.944C51.2693 36.9013 51.2053 36.9227 51.12 37.008C51.0773 37.0507 51.0987 37.0933 51.184 37.136C51.312 37.136 51.3333 37.1787 51.248 37.264C50.992 37.52 50.672 37.7973 50.288 38.096C49.9467 38.352 49.6053 38.608 49.264 38.864C49.2213 38.9067 49.1787 38.9067 49.136 38.864C49.0933 38.7787 49.0507 38.7573 49.008 38.8L48.56 39.44C48.1333 39.8667 47.7067 40.3147 47.28 40.784C46.8533 41.2533 46.4053 41.7867 45.936 42.384C45.808 42.64 45.6587 42.8747 45.488 43.088C45.3173 43.3013 45.0827 43.3867 44.784 43.344C44.784 43.3867 44.8267 43.4507 44.912 43.536C44.9973 43.5787 44.9973 43.664 44.912 43.792C44.1867 44.816 43.4613 45.8827 42.736 46.992C42.0107 48.1013 41.328 49.2533 40.688 50.448C40.3893 50.96 40.0267 51.6213 39.6 52.432L39.024 53.584C38.9813 53.712 38.9173 53.776 38.832 53.776C38.7893 53.7333 38.7253 53.712 38.64 53.712C38.7253 53.8827 38.768 54.032 38.768 54.16C38.768 54.5013 38.576 54.864 38.192 55.248C37.6373 56.528 37.1253 57.744 36.656 58.896C36.1867 60.048 35.824 61.1147 35.568 62.096C35.4827 62.4373 35.3547 62.608 35.184 62.608ZM51.376 60.816H51.504C51.5893 60.8587 51.696 60.816 51.824 60.688H52.08C52.2507 60.6027 52.3573 60.56 52.4 60.56C52.4853 60.56 52.5493 60.6027 52.592 60.688C52.6347 60.816 52.7413 60.816 52.912 60.688L53.168 60.624C53.2533 60.5387 53.3387 60.496 53.424 60.496C53.5093 60.496 53.5947 60.4747 53.68 60.432C53.7653 60.3893 53.808 60.3253 53.808 60.24C53.8507 60.1973 53.9147 60.1973 54 60.24C54.0853 60.24 54.128 60.24 54.128 60.24C54.1707 60.2827 54.2133 60.304 54.256 60.304H54.32C54.448 60.304 54.6187 60.24 54.832 60.112C55.0453 59.984 55.152 59.92 55.152 59.92C55.2373 59.92 55.3227 59.856 55.408 59.728C55.4933 59.6427 55.5573 59.6 55.6 59.6L56.112 59.472C56.368 59.344 56.56 59.28 56.688 59.28C56.7307 59.1947 56.8587 59.1093 57.072 59.024C57.2853 58.9387 57.392 58.8747 57.392 58.832C57.4773 58.7467 57.6053 58.6827 57.776 58.64C57.9467 58.5973 58.0533 58.5547 58.096 58.512C58.2667 58.512 58.672 58.256 59.312 57.744C59.9947 57.232 60.5707 56.5707 61.04 55.76C61.0827 55.6747 60.9547 55.696 60.656 55.824C60.3573 55.952 60.0373 56.1013 59.696 56.272C59.3973 56.4 59.2267 56.464 59.184 56.464C59.1413 56.464 59.0347 56.5493 58.864 56.72C58.6933 56.848 58.5867 56.912 58.544 56.912C58.4587 56.9973 58.3733 57.04 58.288 57.04C58.288 57.04 58.2027 56.9973 58.032 56.912V57.04C57.9467 57.04 57.8827 57.0613 57.84 57.104C57.7973 57.104 57.7333 57.104 57.648 57.104C57.5627 57.104 57.4347 57.1467 57.264 57.232C57.0933 57.3173 56.9867 57.36 56.944 57.36C56.9013 57.36 56.8373 57.3813 56.752 57.424C56.7093 57.424 56.6453 57.4027 56.56 57.36C56.3893 57.5307 56.0693 57.6587 55.6 57.744C55.1307 57.8293 54.7893 57.872 54.576 57.872C54.5333 57.872 54.512 57.872 54.512 57.872C54.5547 57.8293 54.5547 57.808 54.512 57.808C54.4693 57.808 54.4267 57.8293 54.384 57.872C54.3413 57.872 54.2773 57.872 54.192 57.872L54.064 58H53.552C53.424 58 53.2747 58.0213 53.104 58.064C52.976 58.1067 52.8693 58.1067 52.784 58.064H52.656C52.6133 58.064 52.5493 58.064 52.464 58.064C52.4213 58.1067 52.3573 58.128 52.272 58.128C52.2293 58.128 52.1867 58.1067 52.144 58.064C52.144 58.0213 52.1013 57.9787 52.016 57.936C51.9733 57.936 51.9307 57.9573 51.888 58C51.8453 58.0853 51.7813 58.128 51.696 58.128C51.6533 58.128 51.6107 58.1067 51.568 58.064C51.568 58.064 51.5467 58.064 51.504 58.064H51.248C51.248 58.1067 51.2053 58.128 51.12 58.128C51.0773 58.128 51.056 58.1067 51.056 58.064C51.056 58.064 51.0347 58.064 50.992 58.064C50.9067 58.064 50.8 58.0853 50.672 58.128C50.5867 58.1707 50.5013 58.192 50.416 58.192H50.288C50.288 58.1067 50.2453 58.0427 50.16 58V58.064H49.584C49.328 58.0213 49.072 57.936 48.816 57.808C48.56 57.68 48.3253 57.5947 48.112 57.552C48.0693 57.552 48.0267 57.5733 47.984 57.616C47.984 57.6587 47.9627 57.68 47.92 57.68C47.8773 57.68 47.8347 57.6587 47.792 57.616C47.792 57.5733 47.7707 57.552 47.728 57.552C47.6853 57.552 47.6427 57.5733 47.6 57.616C47.6 57.616 47.5573 57.5733 47.472 57.488C47.3867 57.488 47.216 57.4453 46.96 57.36C46.96 57.232 46.896 57.168 46.768 57.168C46.768 57.0827 46.512 56.976 46 56.848C45.488 56.72 45.1893 56.6347 45.104 56.592C45.0613 56.5493 44.976 56.4853 44.848 56.4C44.7627 56.3147 44.6987 56.3147 44.656 56.4C44.528 56.3573 44.3573 56.2507 44.144 56.08C43.9307 55.8667 43.76 55.76 43.632 55.76L43.376 55.376H43.312L43.12 55.696C43.12 55.7387 43.1413 55.8453 43.184 56.016C43.2693 56.1867 43.2907 56.3147 43.248 56.4C43.3333 56.4427 43.376 56.528 43.376 56.656C43.376 56.784 43.4187 56.848 43.504 56.848C43.504 57.104 43.5893 57.36 43.76 57.616C43.76 57.6587 43.8667 57.744 44.08 57.872C44.336 58 44.4427 58.0853 44.4 58.128C44.5707 58.2987 44.656 58.4267 44.656 58.512C44.8267 58.6827 44.912 58.8107 44.912 58.896C44.9547 58.9387 44.976 58.96 44.976 58.96C45.0187 58.96 45.04 58.96 45.04 58.96C45.0827 59.0453 45.1893 59.1947 45.36 59.408C45.5733 59.6213 45.7227 59.728 45.808 59.728H45.936C45.9787 59.7707 46.064 59.856 46.192 59.984C46.3627 60.112 46.4693 60.176 46.512 60.176H46.576C46.9173 60.176 47.2587 60.2187 47.6 60.304C47.984 60.432 48.3467 60.5173 48.688 60.56C48.688 60.56 48.7307 60.5813 48.816 60.624C48.944 60.6667 49.072 60.7093 49.2 60.752C49.5413 60.7947 49.9467 60.7947 50.416 60.752C50.8853 60.752 51.2053 60.7733 51.376 60.816ZM85.9315 59.984C85.8035 59.984 85.5902 59.9627 85.2915 59.92C85.0355 59.92 84.8862 59.8987 84.8435 59.856C84.8008 59.7707 84.8435 59.6853 84.9715 59.6C85.1422 59.5573 85.1422 59.5147 84.9715 59.472C84.8008 59.4293 84.6728 59.344 84.5875 59.216C84.5022 59.1307 84.3528 59.088 84.1395 59.088C83.9262 59.088 83.6275 59.1733 83.2435 59.344C82.8595 59.5147 82.6035 59.5787 82.4755 59.536C81.5795 59.3227 80.7048 59.024 79.8515 58.64C79.0408 58.2987 78.2728 57.8507 77.5475 57.296C77.4622 57.2107 77.3982 57.0613 77.3555 56.848C77.3128 56.6347 77.1635 56.5067 76.9075 56.464C76.6088 56.4213 76.3742 56.272 76.2035 56.016C76.0328 55.7173 75.8195 55.4613 75.5635 55.248C75.2648 54.992 75.0515 54.6933 74.9235 54.352C74.8382 53.968 74.7528 53.6053 74.6675 53.264C74.4968 52.7947 74.3902 52.368 74.3475 51.984C74.3475 51.6 74.3475 51.152 74.3475 50.64C74.3475 50.2987 74.4115 49.68 74.5395 48.784C74.7102 47.888 74.7955 47.2693 74.7955 46.928V46.864C75.0942 46.1813 75.2648 45.712 75.3075 45.456C75.3928 45.2 75.4568 45.008 75.4995 44.88C75.5422 44.7093 75.6702 44.4747 75.8835 44.176C76.0968 43.8773 76.4808 43.344 77.0355 42.576C77.2915 42.2347 77.4408 42.0427 77.4835 42C77.5688 41.9573 77.6968 41.8507 77.8675 41.68C78.1235 41.3387 78.4222 40.9333 78.7635 40.464C79.1048 39.9947 79.4248 39.632 79.7235 39.376C80.1928 38.992 80.7475 38.5867 81.3875 38.16C82.0275 37.6907 82.6035 37.3067 83.1155 37.008C83.2862 36.88 83.4355 36.816 83.5635 36.816C83.6915 36.7733 83.8408 36.7307 84.0115 36.688C84.1395 36.6453 84.4168 36.496 84.8435 36.24C85.2702 35.9413 85.6968 35.664 86.1235 35.408C86.5928 35.152 86.8702 35.0453 86.9555 35.088C86.9982 35.088 87.0195 35.1093 87.0195 35.152C87.0622 35.152 87.1048 35.152 87.1475 35.152C87.2328 35.152 87.3395 35.1093 87.4675 35.024C87.5955 34.896 87.7022 34.8107 87.7875 34.768C88.2568 34.4693 88.7475 34.32 89.2595 34.32C89.6435 34.2773 89.9635 34.2133 90.2195 34.128C90.4755 34.0427 90.7528 33.9573 91.0515 33.872C91.3075 33.7867 91.7342 33.68 92.3315 33.552C92.9288 33.424 93.4835 33.36 93.9955 33.36C94.2942 33.36 94.5288 33.4027 94.6995 33.488C94.9555 33.616 95.1262 33.68 95.2115 33.68C95.2968 33.68 95.3822 33.68 95.4675 33.68C95.5528 33.6373 95.6595 33.5947 95.7875 33.552C95.9155 33.5093 96.0648 33.488 96.2355 33.488C96.3208 33.488 96.3848 33.5307 96.4275 33.616C96.5128 33.6587 96.6408 33.7653 96.8115 33.936C96.8542 33.9787 96.9395 34 97.0675 34C97.1528 34 97.2382 33.9787 97.3235 33.936C97.4515 33.8933 97.5582 33.872 97.6435 33.872C97.8568 33.872 98.0062 33.9573 98.0915 34.128C98.2195 34.256 98.3688 34.3413 98.5395 34.384C98.7528 34.4267 98.9448 34.4693 99.1155 34.512C99.2862 34.512 99.4568 34.5547 99.6275 34.64C100.012 34.8107 100.417 35.1093 100.844 35.536C101.313 35.92 101.59 36.3467 101.676 36.816C101.676 36.9013 101.676 37.0293 101.676 37.2C101.676 37.328 101.59 37.328 101.42 37.2C100.822 36.6453 100.246 36.176 99.6915 35.792C99.1795 35.3653 98.4755 35.152 97.5795 35.152C96.7688 35.152 95.7662 35.2373 94.5715 35.408C93.3768 35.5787 92.2248 35.8347 91.1155 36.176C90.0062 36.4747 89.1315 36.8373 88.4915 37.264C88.2782 37.4347 88.1288 37.5627 88.0435 37.648C87.9582 37.6907 87.7448 37.712 87.4035 37.712C86.9768 37.712 86.5502 37.8827 86.1235 38.224C85.7395 38.5227 85.3555 38.7787 84.9715 38.992C84.8008 39.0773 84.5875 39.1413 84.3315 39.184C84.0755 39.2267 83.8835 39.312 83.7555 39.44C83.6702 39.5253 83.6275 39.5893 83.6275 39.632C83.6275 39.6747 83.5848 39.7387 83.4995 39.824L83.4355 39.888C82.9235 40.4 82.4115 40.784 81.8995 41.04C81.4302 41.296 80.8968 41.6587 80.2995 42.128C80.2568 42.128 80.1288 42.2987 79.9155 42.64C79.7022 42.9387 79.4888 43.2373 79.2755 43.536C79.0622 43.8347 78.9128 44.0053 78.8275 44.048C78.4862 44.1333 78.1875 44.368 77.9315 44.752C77.6755 45.0933 77.4835 45.392 77.3555 45.648C77.2275 45.8187 77.0568 46.032 76.8435 46.288C76.6728 46.5013 76.5235 46.7147 76.3955 46.928C76.0968 47.4827 75.8835 48.08 75.7555 48.72C75.6275 49.36 75.5635 50.0213 75.5635 50.704C75.5635 51.0027 75.5635 51.3227 75.5635 51.664C75.6062 52.0053 75.6488 52.3467 75.6915 52.688C75.7342 52.9867 75.7555 53.2 75.7555 53.328C75.7555 53.4133 75.8622 53.5627 76.0755 53.776C76.2888 54.032 76.4595 54.3093 76.5875 54.608C76.7582 54.864 76.9502 55.0987 77.1635 55.312C77.2062 55.3547 77.2275 55.4187 77.2275 55.504C77.2275 55.8453 77.2702 56.0373 77.3555 56.08C77.4835 56.1227 77.6115 56.144 77.7395 56.144C77.8675 56.144 77.9742 56.2933 78.0595 56.592L78.1875 56.72C78.6995 56.8053 79.1688 56.976 79.5955 57.232C80.0222 57.4453 80.4702 57.616 80.9395 57.744C81.2382 57.7867 81.5368 57.8507 81.8355 57.936C82.1768 57.9787 82.4755 58.0427 82.7315 58.128C82.8595 58.1707 82.9662 58.2347 83.0515 58.32C83.1795 58.448 83.2648 58.5333 83.3075 58.576H83.3715C83.4568 58.576 83.5208 58.5333 83.5635 58.448C83.6488 58.3627 83.7555 58.32 83.8835 58.32C84.0115 58.32 84.1822 58.2987 84.3955 58.256C84.6088 58.256 84.7582 58.2987 84.8435 58.384C85.0568 58.512 85.2488 58.576 85.4195 58.576C85.5902 58.576 85.7608 58.5333 85.9315 58.448C86.0168 58.4053 86.2302 58.384 86.5715 58.384C86.9555 58.384 87.1688 58.384 87.2115 58.384C87.2968 58.4267 87.4035 58.4907 87.5315 58.576C87.7022 58.6613 87.8515 58.6827 87.9795 58.64C88.0648 58.5547 88.0862 58.4907 88.0435 58.448C88.0435 58.4053 88.1288 58.3627 88.2995 58.32L89.5155 58.192C89.6008 58.1493 89.6862 58.128 89.7715 58.128C90.1555 58.0853 90.6035 58 91.1155 57.872C91.6702 57.7013 92.0968 57.5947 92.3955 57.552C92.9075 57.552 93.4408 57.3813 93.9955 57.04C94.6355 56.6987 95.2968 56.4 95.9795 56.144C96.6622 55.8453 97.3448 55.568 98.0275 55.312C98.4968 55.1413 98.9022 54.928 99.2435 54.672C99.5848 54.416 99.9262 54.16 100.268 53.904C100.609 53.6907 100.929 53.4773 101.228 53.264C101.569 53.0507 101.868 52.8373 102.124 52.624C102.252 52.496 102.358 52.3467 102.444 52.176C102.529 52.0053 102.657 51.8773 102.828 51.792C103.937 51.152 104.833 50.4267 105.516 49.616C106.198 48.8053 107.009 47.9947 107.948 47.184C108.161 46.9707 108.31 46.8 108.396 46.672C108.481 46.544 108.588 46.3733 108.716 46.16C109.014 45.6907 109.398 45.2213 109.868 44.752C110.337 44.24 110.721 43.6427 111.02 42.96C111.148 42.6613 111.34 42.4693 111.596 42.384C111.852 42.256 112.001 42.0853 112.044 41.872C112.044 41.872 111.98 41.7013 111.852 41.36C111.766 40.976 111.83 40.72 112.044 40.592C112.257 40.464 112.364 40.3147 112.364 40.144C112.364 39.888 112.236 39.6533 111.98 39.44C111.766 39.184 111.66 38.9707 111.66 38.8C111.702 37.6907 111.617 36.816 111.404 36.176C111.233 35.4933 110.913 34.8747 110.444 34.32C109.974 33.7653 109.377 33.1467 108.652 32.464C107.841 31.696 106.732 31.1413 105.324 30.8C103.958 30.416 102.721 30.16 101.612 30.032C101.356 30.032 101.078 29.968 100.78 29.84C100.524 29.712 100.268 29.6907 100.012 29.776C99.9262 29.8187 99.7128 29.84 99.3715 29.84C99.0728 29.84 98.7315 29.84 98.3475 29.84C97.9635 29.7973 97.7288 29.7547 97.6435 29.712C97.2168 29.6267 96.8328 29.648 96.4915 29.776C96.1502 29.8613 95.7875 29.904 95.4035 29.904C95.1475 29.904 94.9555 29.8827 94.8275 29.84C94.6995 29.7973 94.5715 29.776 94.4435 29.776C94.2728 29.776 94.1235 29.8187 93.9955 29.904C93.9102 29.9467 93.7608 30.0107 93.5475 30.096C92.3528 30.5227 91.0728 30.8427 89.7075 31.056C89.6648 31.056 89.3448 31.1413 88.7475 31.312C88.1502 31.4827 87.5528 31.6747 86.9555 31.888C86.3582 32.0587 85.9955 32.1653 85.8675 32.208C85.4408 32.3787 85.0355 32.528 84.6515 32.656C84.2675 32.784 83.9048 32.976 83.5635 33.232C83.4782 33.2747 83.3715 33.3387 83.2435 33.424C83.1155 33.5093 82.9875 33.552 82.8595 33.552C82.5608 33.5947 82.3048 33.7013 82.0915 33.872C81.9208 34 81.7288 34.128 81.5155 34.256C81.3448 34.384 81.1102 34.4693 80.8115 34.512C80.5555 34.5547 80.3422 34.64 80.1715 34.768C80.0862 34.8107 80.0435 34.9387 80.0435 35.152C80.0862 35.3653 80.0435 35.4933 79.9155 35.536C79.7448 35.6213 79.5315 35.6853 79.2755 35.728C79.0622 35.728 78.8488 35.7493 78.6355 35.792C78.3368 35.8347 78.0382 36.048 77.7395 36.432C77.4408 36.7733 77.1848 37.0507 76.9715 37.264C76.7155 37.4347 76.3742 37.7547 75.9475 38.224C75.5208 38.6507 75.1795 38.9493 74.9235 39.12C74.7102 39.248 74.4968 39.3333 74.2835 39.376C74.0702 39.4187 73.9422 39.632 73.8995 40.016L73.0675 40.784C72.7688 40.8267 72.5768 40.9547 72.4915 41.168C72.4062 41.3387 72.2568 41.5093 72.0435 41.68C71.7022 41.936 71.4888 42.128 71.4035 42.256C71.3608 42.3413 71.1688 42.5333 70.8275 42.832C70.5288 43.1307 70.2515 43.28 69.9955 43.28C69.8675 43.28 69.8035 43.216 69.8035 43.088C69.8035 42.7893 69.9955 42.3627 70.3795 41.808C70.7635 41.5947 71.0408 41.296 71.2115 40.912C71.3822 40.528 71.6382 40.208 71.9795 39.952C72.3208 39.7387 72.5768 39.504 72.7475 39.248C72.9608 38.992 73.1742 38.7147 73.3875 38.416C73.4728 38.3307 73.5368 38.288 73.5795 38.288C73.9208 38.032 74.1982 37.7547 74.4115 37.456C74.6675 37.1147 74.9875 36.8587 75.3715 36.688C75.7555 36.5173 76.0755 36.304 76.3315 36.048C76.5875 35.7493 76.8648 35.4933 77.1635 35.28C79.2542 33.8293 81.5368 32.528 84.0115 31.376C86.4862 30.1813 88.9608 29.4347 91.4355 29.136C91.7768 29.0933 92.0755 29.0507 92.3315 29.008C92.6302 28.9227 92.9288 28.8587 93.2275 28.816C93.3555 28.7733 93.6328 28.7307 94.0595 28.688C94.5288 28.6027 94.9768 28.5387 95.4035 28.496C95.8728 28.4107 96.1502 28.3893 96.2355 28.432C96.3635 28.432 96.4915 28.4533 96.6195 28.496C96.7475 28.496 96.8542 28.496 96.9395 28.496C97.2382 28.496 97.4728 28.4747 97.6435 28.432C97.8568 28.3893 98.1128 28.368 98.4115 28.368C100.246 28.4107 101.974 28.6453 103.596 29.072C105.217 29.4987 106.796 30.2027 108.332 31.184C108.545 31.3547 108.716 31.5253 108.844 31.696C108.972 31.824 109.164 31.9307 109.42 32.016C109.633 32.144 109.846 32.336 110.06 32.592C110.358 33.0187 110.7 33.4453 111.084 33.872C111.468 34.256 111.788 34.6827 112.044 35.152C112.513 36.0053 112.854 36.9013 113.068 37.84C113.324 38.7787 113.452 39.7173 113.452 40.656C113.452 43.9413 112.364 46.736 110.188 49.04C110.017 49.2107 109.74 49.3173 109.356 49.36C109.014 49.36 108.801 49.4027 108.716 49.488C108.673 49.5307 108.737 49.6587 108.908 49.872C109.078 50.0853 109.121 50.2347 109.036 50.32C108.438 50.9173 107.82 51.472 107.18 51.984C107.137 52.0267 107.094 51.9627 107.052 51.792C107.009 51.5787 106.924 51.4507 106.796 51.408C106.668 51.3227 106.582 51.4507 106.54 51.792C106.54 52.1333 106.497 52.3467 106.412 52.432L105.836 51.792C105.75 51.8347 105.75 52.048 105.836 52.432C105.921 52.816 105.921 53.0507 105.836 53.136C104.897 53.8187 103.937 54.4587 102.956 55.056C101.974 55.6533 100.929 56.208 99.8195 56.72C97.6008 57.7867 95.2755 58.5973 92.8435 59.152C90.4542 59.7493 88.1502 60.0267 85.9315 59.984ZM131.182 59.984C131.054 59.984 130.84 59.9627 130.542 59.92C130.286 59.92 130.136 59.8987 130.094 59.856C130.051 59.7707 130.094 59.6853 130.222 59.6C130.392 59.5573 130.392 59.5147 130.222 59.472C130.051 59.4293 129.923 59.344 129.838 59.216C129.752 59.1307 129.603 59.088 129.39 59.088C129.176 59.088 128.878 59.1733 128.494 59.344C128.11 59.5147 127.854 59.5787 127.726 59.536C126.83 59.3227 125.955 59.024 125.102 58.64C124.291 58.2987 123.523 57.8507 122.798 57.296C122.712 57.2107 122.648 57.0613 122.606 56.848C122.563 56.6347 122.414 56.5067 122.158 56.464C121.859 56.4213 121.624 56.272 121.454 56.016C121.283 55.7173 121.07 55.4613 120.814 55.248C120.515 54.992 120.302 54.6933 120.174 54.352C120.088 53.968 120.003 53.6053 119.918 53.264C119.747 52.7947 119.64 52.368 119.598 51.984C119.598 51.6 119.598 51.152 119.598 50.64C119.598 50.2987 119.662 49.68 119.79 48.784C119.96 47.888 120.046 47.2693 120.046 46.928V46.864C120.344 46.1813 120.515 45.712 120.558 45.456C120.643 45.2 120.707 45.008 120.75 44.88C120.792 44.7093 120.92 44.4747 121.134 44.176C121.347 43.8773 121.731 43.344 122.286 42.576C122.542 42.2347 122.691 42.0427 122.734 42C122.819 41.9573 122.947 41.8507 123.118 41.68C123.374 41.3387 123.672 40.9333 124.014 40.464C124.355 39.9947 124.675 39.632 124.974 39.376C125.443 38.992 125.998 38.5867 126.638 38.16C127.278 37.6907 127.854 37.3067 128.366 37.008C128.536 36.88 128.686 36.816 128.814 36.816C128.942 36.7733 129.091 36.7307 129.262 36.688C129.39 36.6453 129.667 36.496 130.094 36.24C130.52 35.9413 130.947 35.664 131.374 35.408C131.843 35.152 132.12 35.0453 132.206 35.088C132.248 35.088 132.27 35.1093 132.27 35.152C132.312 35.152 132.355 35.152 132.398 35.152C132.483 35.152 132.59 35.1093 132.718 35.024C132.846 34.896 132.952 34.8107 133.038 34.768C133.507 34.4693 133.998 34.32 134.51 34.32C134.894 34.2773 135.214 34.2133 135.47 34.128C135.726 34.0427 136.003 33.9573 136.302 33.872C136.558 33.7867 136.984 33.68 137.582 33.552C138.179 33.424 138.734 33.36 139.246 33.36C139.544 33.36 139.779 33.4027 139.95 33.488C140.206 33.616 140.376 33.68 140.462 33.68C140.547 33.68 140.632 33.68 140.718 33.68C140.803 33.6373 140.91 33.5947 141.038 33.552C141.166 33.5093 141.315 33.488 141.486 33.488C141.571 33.488 141.635 33.5307 141.678 33.616C141.763 33.6587 141.891 33.7653 142.062 33.936C142.104 33.9787 142.19 34 142.318 34C142.403 34 142.488 33.9787 142.574 33.936C142.702 33.8933 142.808 33.872 142.894 33.872C143.107 33.872 143.256 33.9573 143.342 34.128C143.47 34.256 143.619 34.3413 143.79 34.384C144.003 34.4267 144.195 34.4693 144.366 34.512C144.536 34.512 144.707 34.5547 144.878 34.64C145.262 34.8107 145.667 35.1093 146.094 35.536C146.563 35.92 146.84 36.3467 146.926 36.816C146.926 36.9013 146.926 37.0293 146.926 37.2C146.926 37.328 146.84 37.328 146.67 37.2C146.072 36.6453 145.496 36.176 144.942 35.792C144.43 35.3653 143.726 35.152 142.83 35.152C142.019 35.152 141.016 35.2373 139.822 35.408C138.627 35.5787 137.475 35.8347 136.366 36.176C135.256 36.4747 134.382 36.8373 133.742 37.264C133.528 37.4347 133.379 37.5627 133.294 37.648C133.208 37.6907 132.995 37.712 132.654 37.712C132.227 37.712 131.8 37.8827 131.374 38.224C130.99 38.5227 130.606 38.7787 130.222 38.992C130.051 39.0773 129.838 39.1413 129.582 39.184C129.326 39.2267 129.134 39.312 129.006 39.44C128.92 39.5253 128.878 39.5893 128.878 39.632C128.878 39.6747 128.835 39.7387 128.75 39.824L128.686 39.888C128.174 40.4 127.662 40.784 127.15 41.04C126.68 41.296 126.147 41.6587 125.55 42.128C125.507 42.128 125.379 42.2987 125.166 42.64C124.952 42.9387 124.739 43.2373 124.526 43.536C124.312 43.8347 124.163 44.0053 124.078 44.048C123.736 44.1333 123.438 44.368 123.182 44.752C122.926 45.0933 122.734 45.392 122.606 45.648C122.478 45.8187 122.307 46.032 122.094 46.288C121.923 46.5013 121.774 46.7147 121.646 46.928C121.347 47.4827 121.134 48.08 121.006 48.72C120.878 49.36 120.814 50.0213 120.814 50.704C120.814 51.0027 120.814 51.3227 120.814 51.664C120.856 52.0053 120.899 52.3467 120.942 52.688C120.984 52.9867 121.006 53.2 121.006 53.328C121.006 53.4133 121.112 53.5627 121.326 53.776C121.539 54.032 121.71 54.3093 121.838 54.608C122.008 54.864 122.2 55.0987 122.414 55.312C122.456 55.3547 122.478 55.4187 122.478 55.504C122.478 55.8453 122.52 56.0373 122.606 56.08C122.734 56.1227 122.862 56.144 122.99 56.144C123.118 56.144 123.224 56.2933 123.31 56.592L123.438 56.72C123.95 56.8053 124.419 56.976 124.845 57.232C125.272 57.4453 125.72 57.616 126.19 57.744C126.488 57.7867 126.787 57.8507 127.086 57.936C127.427 57.9787 127.726 58.0427 127.982 58.128C128.11 58.1707 128.216 58.2347 128.302 58.32C128.43 58.448 128.515 58.5333 128.558 58.576H128.622C128.707 58.576 128.771 58.5333 128.814 58.448C128.899 58.3627 129.006 58.32 129.134 58.32C129.262 58.32 129.432 58.2987 129.646 58.256C129.859 58.256 130.008 58.2987 130.094 58.384C130.307 58.512 130.499 58.576 130.67 58.576C130.84 58.576 131.011 58.5333 131.182 58.448C131.267 58.4053 131.48 58.384 131.822 58.384C132.206 58.384 132.419 58.384 132.462 58.384C132.547 58.4267 132.654 58.4907 132.782 58.576C132.952 58.6613 133.102 58.6827 133.23 58.64C133.315 58.5547 133.336 58.4907 133.294 58.448C133.294 58.4053 133.379 58.3627 133.55 58.32L134.766 58.192C134.851 58.1493 134.936 58.128 135.022 58.128C135.406 58.0853 135.854 58 136.366 57.872C136.92 57.7013 137.347 57.5947 137.646 57.552C138.158 57.552 138.691 57.3813 139.246 57.04C139.886 56.6987 140.547 56.4 141.23 56.144C141.912 55.8453 142.595 55.568 143.278 55.312C143.747 55.1413 144.152 54.928 144.494 54.672C144.835 54.416 145.176 54.16 145.518 53.904C145.859 53.6907 146.179 53.4773 146.478 53.264C146.819 53.0507 147.118 52.8373 147.374 52.624C147.502 52.496 147.608 52.3467 147.694 52.176C147.779 52.0053 147.907 51.8773 148.078 51.792C149.187 51.152 150.083 50.4267 150.766 49.616C151.448 48.8053 152.259 47.9947 153.198 47.184C153.411 46.9707 153.56 46.8 153.646 46.672C153.731 46.544 153.838 46.3733 153.966 46.16C154.264 45.6907 154.648 45.2213 155.118 44.752C155.587 44.24 155.971 43.6427 156.27 42.96C156.398 42.6613 156.59 42.4693 156.846 42.384C157.102 42.256 157.251 42.0853 157.294 41.872C157.294 41.872 157.23 41.7013 157.102 41.36C157.016 40.976 157.08 40.72 157.294 40.592C157.507 40.464 157.614 40.3147 157.614 40.144C157.614 39.888 157.486 39.6533 157.23 39.44C157.016 39.184 156.91 38.9707 156.91 38.8C156.952 37.6907 156.867 36.816 156.654 36.176C156.483 35.4933 156.163 34.8747 155.694 34.32C155.224 33.7653 154.627 33.1467 153.902 32.464C153.091 31.696 151.982 31.1413 150.574 30.8C149.208 30.416 147.971 30.16 146.862 30.032C146.606 30.032 146.328 29.968 146.03 29.84C145.774 29.712 145.518 29.6907 145.262 29.776C145.176 29.8187 144.963 29.84 144.622 29.84C144.323 29.84 143.982 29.84 143.598 29.84C143.214 29.7973 142.979 29.7547 142.894 29.712C142.467 29.6267 142.083 29.648 141.742 29.776C141.4 29.8613 141.038 29.904 140.654 29.904C140.398 29.904 140.206 29.8827 140.078 29.84C139.95 29.7973 139.822 29.776 139.694 29.776C139.523 29.776 139.374 29.8187 139.246 29.904C139.16 29.9467 139.011 30.0107 138.798 30.096C137.603 30.5227 136.323 30.8427 134.958 31.056C134.915 31.056 134.595 31.1413 133.998 31.312C133.4 31.4827 132.803 31.6747 132.206 31.888C131.608 32.0587 131.246 32.1653 131.118 32.208C130.691 32.3787 130.286 32.528 129.902 32.656C129.518 32.784 129.155 32.976 128.814 33.232C128.728 33.2747 128.622 33.3387 128.494 33.424C128.366 33.5093 128.238 33.552 128.11 33.552C127.811 33.5947 127.555 33.7013 127.342 33.872C127.171 34 126.979 34.128 126.766 34.256C126.595 34.384 126.36 34.4693 126.062 34.512C125.806 34.5547 125.592 34.64 125.422 34.768C125.336 34.8107 125.294 34.9387 125.294 35.152C125.336 35.3653 125.294 35.4933 125.166 35.536C124.995 35.6213 124.782 35.6853 124.526 35.728C124.312 35.728 124.099 35.7493 123.885 35.792C123.587 35.8347 123.288 36.048 122.99 36.432C122.691 36.7733 122.435 37.0507 122.222 37.264C121.966 37.4347 121.624 37.7547 121.198 38.224C120.771 38.6507 120.43 38.9493 120.174 39.12C119.96 39.248 119.747 39.3333 119.534 39.376C119.32 39.4187 119.192 39.632 119.15 40.016L118.318 40.784C118.019 40.8267 117.827 40.9547 117.742 41.168C117.656 41.3387 117.507 41.5093 117.294 41.68C116.952 41.936 116.739 42.128 116.654 42.256C116.611 42.3413 116.419 42.5333 116.078 42.832C115.779 43.1307 115.502 43.28 115.245 43.28C115.117 43.28 115.053 43.216 115.053 43.088C115.053 42.7893 115.245 42.3627 115.63 41.808C116.014 41.5947 116.291 41.296 116.462 40.912C116.632 40.528 116.888 40.208 117.23 39.952C117.571 39.7387 117.827 39.504 117.998 39.248C118.211 38.992 118.424 38.7147 118.638 38.416C118.723 38.3307 118.787 38.288 118.83 38.288C119.171 38.032 119.448 37.7547 119.661 37.456C119.918 37.1147 120.238 36.8587 120.622 36.688C121.006 36.5173 121.326 36.304 121.582 36.048C121.838 35.7493 122.115 35.4933 122.414 35.28C124.504 33.8293 126.787 32.528 129.262 31.376C131.736 30.1813 134.211 29.4347 136.686 29.136C137.027 29.0933 137.326 29.0507 137.582 29.008C137.88 28.9227 138.179 28.8587 138.478 28.816C138.606 28.7733 138.883 28.7307 139.31 28.688C139.779 28.6027 140.227 28.5387 140.654 28.496C141.123 28.4107 141.4 28.3893 141.486 28.432C141.614 28.432 141.742 28.4533 141.87 28.496C141.998 28.496 142.104 28.496 142.19 28.496C142.488 28.496 142.723 28.4747 142.894 28.432C143.107 28.3893 143.363 28.368 143.662 28.368C145.496 28.4107 147.224 28.6453 148.846 29.072C150.467 29.4987 152.046 30.2027 153.582 31.184C153.795 31.3547 153.966 31.5253 154.094 31.696C154.222 31.824 154.414 31.9307 154.67 32.016C154.883 32.144 155.096 32.336 155.31 32.592C155.608 33.0187 155.95 33.4453 156.334 33.872C156.718 34.256 157.038 34.6827 157.294 35.152C157.763 36.0053 158.104 36.9013 158.318 37.84C158.574 38.7787 158.702 39.7173 158.702 40.656C158.702 43.9413 157.614 46.736 155.438 49.04C155.267 49.2107 154.99 49.3173 154.606 49.36C154.264 49.36 154.051 49.4027 153.966 49.488C153.923 49.5307 153.987 49.6587 154.158 49.872C154.328 50.0853 154.371 50.2347 154.286 50.32C153.688 50.9173 153.07 51.472 152.43 51.984C152.387 52.0267 152.344 51.9627 152.302 51.792C152.259 51.5787 152.174 51.4507 152.046 51.408C151.918 51.3227 151.832 51.4507 151.79 51.792C151.79 52.1333 151.747 52.3467 151.662 52.432L151.086 51.792C151 51.8347 151 52.048 151.086 52.432C151.171 52.816 151.171 53.0507 151.086 53.136C150.147 53.8187 149.187 54.4587 148.206 55.056C147.224 55.6533 146.179 56.208 145.07 56.72C142.851 57.7867 140.526 58.5973 138.094 59.152C135.704 59.7493 133.4 60.0267 131.182 59.984ZM223.92 71.44C223.792 71.44 223.664 71.4187 223.536 71.376C223.408 71.376 223.28 71.376 223.152 71.376H223.024C222.853 71.2907 222.789 71.1413 222.832 70.928C222.874 70.7573 222.789 70.672 222.576 70.672C222.405 70.672 222.298 70.7573 222.256 70.928C222.213 71.0987 222.106 71.184 221.936 71.184H221.808C221.808 71.184 221.786 71.1627 221.744 71.12C221.744 71.12 221.722 71.12 221.68 71.12H221.552C221.381 71.0347 221.232 70.9067 221.104 70.736C220.976 70.5653 220.848 70.5227 220.72 70.608C220.549 70.736 220.357 70.8 220.144 70.8C219.845 70.8 219.546 70.6933 219.248 70.48C218.992 70.2667 218.757 70.0747 218.544 69.904C218.501 69.8613 218.416 69.8613 218.288 69.904C218.202 69.9467 218.117 69.9467 218.032 69.904H217.968L217.456 69.648C217.413 69.648 217.37 69.6267 217.328 69.584C216.944 69.456 216.581 69.264 216.24 69.008C215.941 68.752 215.578 68.5813 215.152 68.496L215.088 68.432L213.744 67.664C213.744 67.664 213.722 67.664 213.68 67.664C213.68 67.664 213.658 67.6427 213.616 67.6C213.53 67.2587 213.424 67.0667 213.296 67.024C213.168 67.024 212.933 67.024 212.592 67.024C212.592 66.9813 212.549 66.96 212.464 66.96L211.568 66.384C211.568 66.3413 211.546 66.32 211.504 66.32C211.504 66.32 211.482 66.2773 211.44 66.192C211.397 66.1493 211.354 66.0853 211.312 66C210.757 65.7867 210.224 65.5093 209.712 65.168C209.242 64.8693 208.794 64.5067 208.368 64.08C208.282 63.9947 208.154 63.9307 207.984 63.888C207.856 63.8453 207.749 63.7813 207.664 63.696C207.578 63.6107 207.536 63.568 207.536 63.568C206.938 63.184 206.405 62.7787 205.936 62.352C205.893 62.352 205.872 62.3307 205.872 62.288C205.872 62.288 205.85 62.288 205.808 62.288C205.722 62.0747 205.573 61.9253 205.36 61.84C205.146 61.7547 204.954 61.6267 204.784 61.456L204.656 61.328C204.485 61.1573 204.314 61.008 204.144 60.88C203.973 60.7947 203.802 60.6667 203.632 60.496L203.568 60.432C203.525 60.3893 203.504 60.3467 203.504 60.304C203.504 60.0907 203.397 59.984 203.184 59.984C203.056 59.984 202.928 59.984 202.8 59.984C202.672 59.984 202.586 59.8773 202.544 59.664C202.544 59.6213 202.522 59.5787 202.48 59.536C202.309 59.1947 202.053 58.896 201.712 58.64C201.37 58.4267 201.05 58.1707 200.752 57.872L200.304 57.424C200.133 57.2107 199.92 56.9973 199.664 56.784C199.45 56.5707 199.408 56.3147 199.536 56.016C199.365 55.9733 199.194 55.952 199.024 55.952C198.853 55.952 198.725 55.888 198.64 55.76C198.554 55.5893 198.469 55.44 198.384 55.312C198.298 55.1413 198.149 55.0133 197.936 54.928C197.936 54.8853 197.914 54.864 197.872 54.864C197.872 54.864 197.872 54.8427 197.872 54.8L196.592 53.328C196.592 53.2853 196.57 53.2427 196.528 53.2C196.485 53.1573 196.421 53.1147 196.336 53.072C196.25 53.0293 196.208 52.9867 196.208 52.944C196.165 52.4747 195.952 52.1333 195.568 51.92C195.226 51.7067 194.992 51.4507 194.864 51.152C194.821 50.9387 194.757 50.768 194.672 50.64C194.629 50.4693 194.522 50.32 194.352 50.192V50.064C193.626 48.7413 193.264 47.568 193.264 46.544C193.264 45.648 193.498 44.7733 193.968 43.92C194.437 43.0667 195.12 42.192 196.016 41.296C196.272 41.04 196.528 40.784 196.784 40.528C197.082 40.272 197.36 39.9947 197.616 39.696C197.658 39.696 197.68 39.696 197.68 39.696C197.722 39.6533 197.744 39.632 197.744 39.632C198.17 39.4187 198.49 39.1413 198.704 38.8C198.917 38.416 199.194 38.0747 199.536 37.776C199.536 37.7333 199.536 37.712 199.536 37.712C199.578 37.712 199.6 37.6907 199.6 37.648L201.52 35.728C201.904 35.6427 202.16 35.472 202.288 35.216C202.416 34.96 202.565 34.7467 202.736 34.576L202.8 34.512L204.016 33.36H204.208C204.464 33.36 204.613 33.2747 204.656 33.104C204.741 32.9333 204.848 32.7413 204.976 32.528C205.018 32.528 205.04 32.528 205.04 32.528C205.04 32.4853 205.04 32.464 205.04 32.464C205.082 32.464 205.104 32.464 205.104 32.464C205.104 32.4213 205.125 32.4 205.168 32.4C205.168 32.3573 205.168 32.336 205.168 32.336C205.21 32.336 205.232 32.336 205.232 32.336C205.488 32.2507 205.68 32.144 205.808 32.016C205.978 31.8453 206.149 31.6533 206.32 31.44C206.32 31.3973 206.341 31.376 206.384 31.376C206.384 31.2907 206.426 31.248 206.512 31.248L206.576 31.184L207.024 30.8H207.088C208.282 29.8187 209.52 28.9013 210.8 28.048C210.842 28.048 210.864 28.048 210.864 28.048C210.864 28.0053 210.864 27.984 210.864 27.984C210.949 27.9413 211.034 27.9413 211.12 27.984C211.205 27.984 211.269 27.9627 211.312 27.92L211.888 27.536C211.888 27.4933 211.909 27.472 211.952 27.472C211.994 27.3867 212.058 27.3653 212.144 27.408C212.229 27.4507 212.336 27.4507 212.464 27.408C212.592 27.3227 212.656 27.1947 212.656 27.024C212.698 26.8107 212.805 26.6827 212.976 26.64C213.445 26.4267 213.872 26.2347 214.256 26.064C214.682 25.8933 215.088 25.68 215.472 25.424C215.514 25.424 215.557 25.4027 215.6 25.36H215.728C215.728 25.3173 215.77 25.296 215.856 25.296L216.112 25.168H216.816C217.029 25.168 217.136 25.104 217.136 24.976C217.136 24.8053 217.221 24.72 217.392 24.72C217.434 24.6773 217.477 24.656 217.52 24.656H217.584C217.754 24.5707 217.904 24.5067 218.032 24.464C218.202 24.4213 218.373 24.3787 218.544 24.336H218.672C218.8 24.336 218.906 24.3147 218.992 24.272C219.12 24.2293 219.248 24.208 219.376 24.208C219.418 24.1653 219.461 24.144 219.504 24.144C219.717 24.272 219.888 24.336 220.016 24.336C220.229 24.336 220.485 24.2293 220.784 24.016C220.784 23.9733 220.784 23.952 220.784 23.952C220.826 23.952 220.848 23.952 220.848 23.952C221.616 23.952 222.32 24.08 222.96 24.336C223.002 24.3787 223.045 24.4 223.088 24.4C223.301 24.4853 223.472 24.6133 223.6 24.784C223.728 24.9547 223.898 25.0613 224.112 25.104L224.176 25.168C224.389 25.3387 224.56 25.5307 224.688 25.744C224.858 25.9147 225.008 26.1067 225.136 26.32C225.136 26.32 225.136 26.3413 225.136 26.384C225.178 26.384 225.2 26.4053 225.2 26.448C225.285 26.6187 225.349 26.7893 225.392 26.96C225.477 27.088 225.562 27.216 225.648 27.344C225.648 27.3867 225.648 27.408 225.648 27.408C225.69 27.408 225.712 27.4293 225.712 27.472C225.754 27.6427 225.797 27.8347 225.84 28.048C225.882 28.2187 225.946 28.3893 226.032 28.56C226.074 28.6027 226.096 28.6453 226.096 28.688C226.01 28.9867 225.818 29.136 225.52 29.136C225.264 29.136 225.093 29.008 225.007 28.752C224.837 27.856 224.389 27.2373 223.664 26.896C223.664 26.8533 223.642 26.832 223.6 26.832C223.045 26.6187 222.512 26.512 222 26.512C221.701 26.512 221.466 26.5333 221.296 26.576L221.232 26.64H220.72C220.677 26.6827 220.634 26.704 220.592 26.704H220.464C220.378 26.6613 220.25 26.64 220.08 26.64C219.952 26.64 219.824 26.6613 219.696 26.704C219.568 26.7467 219.44 26.8107 219.312 26.896C219.269 26.896 219.226 26.9173 219.184 26.96C219.184 26.96 219.162 26.96 219.12 26.96C219.034 26.96 218.864 27.0027 218.608 27.088H218.352C218.181 27.088 218.096 27.0027 218.096 26.832C218.096 26.6613 218.032 26.5547 217.904 26.512C217.733 26.512 217.605 26.5973 217.52 26.768C217.477 26.9387 217.413 27.0667 217.328 27.152C217.285 27.1947 217.264 27.2373 217.264 27.28C217.264 27.408 217.2 27.472 217.072 27.472C217.072 27.5147 217.05 27.536 217.008 27.536C216.965 27.536 216.922 27.5573 216.88 27.6C216.88 27.6 216.858 27.6 216.816 27.6C216.73 27.6 216.688 27.6213 216.688 27.664L216.368 27.472C216.282 27.472 216.24 27.536 216.24 27.664C216.24 27.7493 216.154 27.856 215.984 27.984C215.941 27.984 215.92 28.0053 215.92 28.048L215.152 28.304C215.109 28.3467 215.066 28.368 215.024 28.368C214.469 28.368 213.978 28.5813 213.552 29.008L213.488 29.072C212.037 29.7547 210.672 30.48 209.392 31.248H209.328C209.072 31.4187 208.816 31.504 208.56 31.504C208.304 31.4613 208.197 31.6107 208.24 31.952L208.176 32.016L207.664 32.336C207.621 32.3787 207.578 32.4 207.536 32.4C207.194 32.5707 206.874 32.8053 206.576 33.104C206.533 33.104 206.49 33.1253 206.448 33.168C206.277 33.296 206.085 33.424 205.872 33.552C205.658 33.6373 205.445 33.7653 205.232 33.936C205.018 34.1067 204.805 34.2773 204.592 34.448C204.378 34.576 204.186 34.7467 204.016 34.96V35.024C202.608 36.048 201.349 37.1147 200.24 38.224C200.197 38.224 200.176 38.2453 200.176 38.288C200.176 38.288 200.154 38.288 200.112 38.288C199.813 38.5013 199.514 38.7147 199.216 38.928C198.96 39.1413 198.768 39.4187 198.64 39.76L198.576 39.824C198.021 40.3787 197.424 41.04 196.784 41.808C196.144 42.5333 195.674 43.216 195.376 43.856C195.29 44.112 195.226 44.3893 195.184 44.688C195.184 44.944 195.184 45.2427 195.184 45.584V45.712C195.141 45.7973 195.12 45.9467 195.12 46.16C195.12 46.4587 195.269 46.8 195.568 47.184C195.61 47.184 195.632 47.2053 195.632 47.248C195.888 47.888 196.272 48.656 196.784 49.552C196.826 49.552 196.847 49.5733 196.847 49.616C196.933 49.872 196.997 50.1067 197.04 50.32C197.082 50.5333 197.253 50.6613 197.552 50.704L197.68 50.832C198.021 51.3013 198.384 51.792 198.768 52.304C199.194 52.7733 199.621 53.264 200.048 53.776C200.048 53.8187 200.048 53.8613 200.048 53.904C200.09 53.904 200.112 53.904 200.112 53.904C200.197 53.9467 200.24 54.0533 200.24 54.224C200.24 54.5227 200.282 54.6933 200.368 54.736C200.453 54.7787 200.538 54.7573 200.624 54.672C200.752 54.5867 200.837 54.5867 200.88 54.672C201.392 55.3547 202.01 55.9947 202.736 56.592C202.736 56.592 202.736 56.6133 202.736 56.656C202.736 56.656 202.757 56.656 202.8 56.656C203.141 56.9547 203.482 57.2747 203.824 57.616C204.208 57.9147 204.57 58.2347 204.912 58.576L204.976 58.64C205.061 58.768 205.146 58.8533 205.232 58.896C205.317 58.9813 205.381 59.1093 205.424 59.28C205.466 59.4507 205.594 59.536 205.808 59.536C206.021 59.5787 206.192 59.664 206.32 59.792H206.384C206.725 60.0907 207.066 60.368 207.408 60.624C207.749 60.88 208.112 61.136 208.496 61.392C208.496 61.4347 208.517 61.456 208.56 61.456C208.688 61.4987 208.73 61.584 208.688 61.712C208.688 61.84 208.709 61.9467 208.752 62.032C208.88 62.1173 209.029 62.16 209.2 62.16C209.413 62.2027 209.605 62.2667 209.776 62.352C209.776 62.3947 209.776 62.416 209.776 62.416C209.818 62.416 209.84 62.416 209.84 62.416C210.821 63.0987 211.845 63.76 212.912 64.4C213.978 65.0827 215.088 65.7227 216.24 66.32C217.861 67.1733 219.333 67.792 220.656 68.176C222.021 68.56 223.237 68.752 224.304 68.752C225.712 68.752 226.8 68.4747 227.568 67.92C228.336 67.3653 228.72 66.6827 228.72 65.872C228.72 65.488 228.656 65.1467 228.528 64.848C228.528 64.8053 228.506 64.784 228.464 64.784C228.464 64.784 228.464 64.7627 228.464 64.72C228.336 64.1227 228.101 63.696 227.76 63.44C227.717 63.3973 227.696 63.3547 227.696 63.312C227.61 63.1413 227.376 62.992 226.992 62.864C226.992 62.864 226.97 62.864 226.928 62.864C226.928 62.864 226.928 62.8427 226.928 62.8L226.736 62.672C226.736 62.6293 226.714 62.608 226.672 62.608C226.501 62.3947 226.352 62.2027 226.224 62.032C226.138 61.904 225.925 61.84 225.584 61.84H225.52C225.434 61.6693 225.392 61.5413 225.392 61.456C225.392 61.2853 225.477 61.136 225.648 61.008C225.818 60.88 225.989 60.88 226.16 61.008L226.544 61.264C226.586 61.264 226.608 61.264 226.608 61.264C226.608 61.3067 226.629 61.328 226.672 61.328C226.842 61.5413 226.992 61.7333 227.12 61.904C227.29 62.0747 227.525 62.1813 227.824 62.224C227.824 62.2667 227.824 62.288 227.824 62.288C227.866 62.288 227.888 62.3093 227.888 62.352C227.93 62.352 227.994 62.3947 228.08 62.48L228.208 62.608C228.378 62.9067 228.634 63.2053 228.976 63.504C228.976 63.5893 228.997 63.632 229.04 63.632C229.338 64.1013 229.594 64.656 229.808 65.296V65.616C229.808 65.7867 229.829 65.936 229.872 66.064C229.957 66.192 230.021 66.32 230.064 66.448V66.576C230.064 67.7707 229.658 68.8587 228.848 69.84C228.08 70.864 226.885 71.376 225.264 71.376H225.2C225.072 71.2907 224.944 71.2267 224.816 71.184C224.73 71.1413 224.645 71.12 224.56 71.12C224.389 71.12 224.218 71.2267 224.048 71.44H223.92ZM176.688 62.672C174.81 62.672 172.997 61.8613 171.248 60.24C170.992 60.1547 170.778 59.9627 170.608 59.664C170.437 59.408 170.266 59.1947 170.095 59.024C169.797 58.9387 169.605 58.8107 169.52 58.64C169.434 58.4693 169.349 58.256 169.264 58C169.264 57.9573 169.221 57.8933 169.135 57.808C169.093 57.7653 169.05 57.7227 169.008 57.68C168.965 57.6373 168.922 57.5947 168.88 57.552C168.837 57.552 168.816 57.552 168.816 57.552C168.858 57.5093 168.88 57.488 168.88 57.488C168.709 57.1467 168.602 56.912 168.56 56.784C168.517 56.6133 168.346 56.4 168.048 56.144C167.962 56.0587 167.877 55.9307 167.792 55.76C167.749 55.5467 167.706 55.376 167.664 55.248C167.194 54.1387 166.768 53.008 166.384 51.856C166.042 50.6613 165.872 49.4453 165.872 48.208C165.872 47.7813 166 47.4613 166.256 47.248C166.512 47.0347 166.789 46.928 167.088 46.928C167.642 46.928 168.005 47.2053 168.176 47.76C168.261 47.9307 168.346 48.1227 168.432 48.336C168.56 48.5067 168.624 48.6773 168.624 48.848V49.488C168.624 49.744 168.688 49.808 168.816 49.68C168.986 49.5093 169.093 49.5307 169.135 49.744C169.221 50.0427 169.285 50.2347 169.328 50.32C169.37 50.3627 169.541 50.4693 169.84 50.64C169.925 50.8107 170.032 50.9813 170.16 51.152C170.288 51.3227 170.416 51.4933 170.544 51.664V51.792C170.544 52.048 170.629 52.24 170.8 52.368C170.97 52.4533 171.162 52.56 171.376 52.688L172.208 53.584C172.165 53.6693 172.144 53.7547 172.144 53.84C172.144 54.096 172.272 54.2667 172.528 54.352C172.826 54.4373 173.082 54.5227 173.296 54.608C173.338 54.6507 173.573 54.864 174 55.248C174.469 55.5893 174.789 55.8027 174.96 55.888C175.173 56.016 175.408 56.1653 175.664 56.336C175.92 56.464 176.176 56.5707 176.432 56.656C176.517 56.656 176.602 56.6987 176.688 56.784C177.456 57.0827 178.16 57.232 178.8 57.232C179.397 57.232 180.08 57.104 180.848 56.848C180.976 56.8053 181.082 56.784 181.168 56.784C181.296 56.7413 181.381 56.72 181.424 56.72C181.552 56.72 181.616 56.7627 181.616 56.848C181.616 57.0613 181.424 57.2747 181.04 57.488C181.04 57.5733 180.976 57.616 180.848 57.616C180.677 57.6587 180.506 57.7227 180.336 57.808C180.165 57.8933 179.994 57.9147 179.824 57.872C179.61 57.872 179.44 57.8507 179.312 57.808C179.184 57.7653 179.013 57.8293 178.8 58C178.245 57.9573 177.626 57.8293 176.944 57.616C176.261 57.4027 175.685 57.168 175.216 56.912C175.173 56.6133 174.981 56.464 174.64 56.464C174.298 56.4213 174.021 56.3147 173.808 56.144C173.637 55.9307 173.488 55.696 173.36 55.44C173.274 55.184 173.061 55.1627 172.72 55.376C172.549 55.2053 172.4 55.0773 172.272 54.992C172.144 54.864 171.952 54.8 171.696 54.8C171.61 54.7147 171.482 54.6293 171.312 54.544C171.184 54.4587 171.141 54.3307 171.184 54.16C171.013 54.032 170.672 53.8187 170.16 53.52C169.69 53.1787 169.413 52.9653 169.328 52.88C168.944 52.4533 168.517 52.0907 168.048 51.792L167.856 51.664C168.41 53.328 169.072 54.9493 169.84 56.528C170.65 58.1067 171.824 59.3867 173.36 60.368C174.085 60.7947 174.746 61.136 175.344 61.392C175.984 61.6907 176.602 61.84 177.2 61.84C178.309 61.84 179.482 61.2853 180.72 60.176C182.298 58.7253 183.621 56.8693 184.688 54.608C185.797 52.3467 186.8 50.128 187.696 47.952C187.781 47.8667 187.845 47.8027 187.888 47.76C187.93 47.7173 187.973 47.6747 188.016 47.632C188.144 47.3333 188.229 46.992 188.272 46.608C188.357 46.1813 188.442 45.8187 188.528 45.52C188.741 45.264 188.933 44.9653 189.104 44.624C189.317 44.24 189.424 43.8773 189.424 43.536L189.552 43.216C189.637 43.1733 189.616 43.1093 189.488 43.024C189.36 42.9387 189.445 42.8747 189.744 42.832C190.042 42.3627 190.213 41.8933 190.256 41.424C190.341 40.912 190.469 40.5493 190.64 40.336C190.768 40.1227 190.896 39.9307 191.024 39.76C191.152 39.5893 191.173 39.376 191.088 39.12C191.13 38.9493 191.258 38.544 191.472 37.904C191.728 37.2213 192.005 36.4747 192.304 35.664C192.602 34.8533 192.858 34.1493 193.072 33.552C193.285 32.912 193.392 32.5493 193.392 32.464L194.032 30.608C192.837 30.6507 191.621 30.7147 190.384 30.8C189.146 30.8853 187.93 31.0773 186.736 31.376C186.778 31.3333 186.757 31.2907 186.672 31.248C186.586 31.1627 186.522 31.12 186.48 31.12L186.416 31.056C186.245 31.0133 186.202 31.056 186.288 31.184C186.416 31.2693 186.394 31.3547 186.224 31.44C185.84 31.4827 185.392 31.5893 184.88 31.76C184.41 31.888 183.984 31.952 183.6 31.952C183.429 31.9947 183.237 32.016 183.024 32.016C182.81 31.9733 182.597 31.952 182.384 31.952C181.744 31.9947 181.104 32.1653 180.464 32.464C179.866 32.7627 179.248 33.0187 178.608 33.232L177.456 33.552C176.986 33.7653 176.474 33.9147 175.92 34C175.365 34.0853 174.853 34.2347 174.384 34.448L174.448 34.512C174.277 34.64 174.064 34.7253 173.808 34.768C173.552 34.8107 173.317 34.8747 173.104 34.96C172.592 35.1307 172.058 35.344 171.504 35.6C170.992 35.8133 170.458 36.0053 169.904 36.176C169.605 36.2613 169.306 36.3467 169.008 36.432C168.752 36.4747 168.453 36.56 168.112 36.688C167.941 36.7307 167.792 36.7733 167.664 36.816C167.536 36.816 167.386 36.816 167.216 36.816C166.832 36.816 166.49 36.7307 166.192 36.56C166.021 36.4747 165.765 36.24 165.424 35.856C165.125 35.4293 164.869 35.0027 164.656 34.576C164.442 34.1067 164.357 33.7653 164.4 33.552C164.442 33.424 164.72 33.2747 165.232 33.104C165.744 32.8907 166.341 32.6987 167.024 32.528C167.706 32.3147 168.325 32.144 168.88 32.016C169.477 31.8453 169.861 31.7387 170.032 31.696C170.117 31.6533 170.352 31.6107 170.736 31.568C171.12 31.4827 171.333 31.5253 171.376 31.696C171.418 31.7813 171.376 31.9093 171.248 32.08C171.12 32.208 171.013 32.3147 170.928 32.4C170.928 32.4427 170.864 32.528 170.736 32.656C170.65 32.784 170.65 32.8267 170.736 32.784L172.976 32.208C173.317 32.1227 173.722 32.1013 174.192 32.144C174.704 32.144 175.088 32.0587 175.344 31.888C175.429 31.8027 175.472 31.7173 175.472 31.632C175.514 31.5467 175.6 31.504 175.728 31.504C176.026 31.4187 176.517 31.3333 177.2 31.248C177.925 31.1627 178.373 31.0347 178.544 30.864C178.885 30.7787 179.248 30.736 179.632 30.736C180.016 30.6933 180.357 30.5867 180.656 30.416C180.784 30.3733 181.189 30.288 181.872 30.16C182.597 30.032 183.408 29.904 184.304 29.776C185.242 29.6053 186.074 29.4773 186.8 29.392C187.525 29.264 187.952 29.2 188.08 29.2H188.144C188.314 29.2 188.485 29.1787 188.656 29.136C188.826 29.0933 188.997 29.072 189.168 29.072C189.509 29.072 189.68 29.2213 189.68 29.52C189.722 29.5627 189.829 29.584 190 29.584C190.384 29.584 190.682 29.4773 190.896 29.264C191.066 29.2213 191.194 29.1573 191.28 29.072C191.408 28.9867 191.557 28.9227 191.728 28.88C192.197 28.7947 192.688 28.7733 193.2 28.816C193.754 28.816 194.245 28.816 194.672 28.816C194.97 28.176 195.29 27.7493 195.632 27.536C195.973 27.28 196.485 27.152 197.168 27.152C197.552 27.152 197.808 27.3013 197.936 27.6C198.106 27.856 198.213 28.1547 198.256 28.496C198.256 28.5813 198.256 28.688 198.256 28.816C198.298 28.9013 198.319 29.008 198.319 29.136C198.319 29.8613 198.149 30.5013 197.808 31.056C197.424 31.7387 196.89 32.144 196.208 32.272C196.165 32.4 195.994 32.848 195.696 33.616C195.397 34.384 195.077 35.2373 194.736 36.176C194.394 37.072 194.074 37.8827 193.776 38.608C193.52 39.2907 193.37 39.6747 193.328 39.76C193.2 39.9307 193.072 40.1013 192.944 40.272C192.816 40.4427 192.73 40.6347 192.688 40.848C192.645 41.2747 192.453 41.872 192.112 42.64C191.813 43.408 191.472 44.176 191.088 44.944C190.746 45.6693 190.469 46.2667 190.256 46.736C190 46.9067 189.786 47.056 189.616 47.184C189.445 47.2693 189.488 47.4613 189.744 47.76C189.616 48.0587 189.488 48.208 189.36 48.208C189.232 48.1653 189.061 48.1227 188.848 48.08C188.89 48.2933 188.954 48.4427 189.04 48.528C189.125 48.5707 189.189 48.6987 189.232 48.912C188.89 49.68 188.464 50.6187 187.952 51.728C187.44 52.7947 186.928 53.648 186.416 54.288C186.117 54.416 185.882 54.544 185.712 54.672C185.541 54.8 185.541 55.056 185.712 55.44C185.626 55.5253 185.562 55.632 185.52 55.76C185.477 55.888 185.434 56.016 185.392 56.144L184.88 56.912C184.709 57.04 184.538 57.1893 184.368 57.36C184.197 57.488 184.112 57.7013 184.112 58C183.941 58.256 183.792 58.448 183.664 58.576C183.408 58.6613 183.194 58.768 183.024 58.896C182.853 59.024 182.768 59.2587 182.768 59.6C181.914 60.5387 180.954 61.2853 179.888 61.84C178.864 62.3947 177.797 62.672 176.688 62.672Z" fill="#2CD7AF"/>
<path d="M257.04 69.28C254.907 66.976 253.84 64.2027 253.84 60.96C253.84 58.7413 254.565 56.5653 256.016 54.432C257.552 52.2987 259.173 50.5493 260.88 49.184L282.128 32.288C283.835 30.8373 285.115 29.2587 285.968 27.552C286.821 25.8453 287.248 24.1813 287.248 22.56C287.248 20.9387 286.821 19.4453 285.968 18.08C285.2 16.7147 284.005 15.6907 282.384 15.008C281.104 14.4107 279.44 14.112 277.392 14.112C275.6 14.112 273.765 14.368 271.888 14.88C270.096 15.392 268.517 16.1173 267.152 17.056C266.384 17.568 265.488 18.5493 264.464 20C263.525 21.3653 262.629 22.8587 261.776 24.48C261.008 26.1013 260.453 27.6373 260.112 29.088C260.112 29.856 259.643 30.4533 258.704 30.88C257.851 31.3067 257.467 31.0933 257.552 30.24C257.893 28.96 258.235 27.4667 258.576 25.76C258.917 24.0533 259.216 22.3893 259.472 20.768C259.728 19.1467 259.856 17.952 259.856 17.184C259.856 16.2453 260.197 15.4773 260.88 14.88C261.563 14.2827 262.16 13.856 262.672 13.6C263.696 13.088 265.445 12.6187 267.92 12.192C270.395 11.68 272.613 11.3813 274.576 11.296L278.16 11.04C278.843 10.9547 279.44 10.912 279.952 10.912C280.549 10.912 281.147 10.912 281.744 10.912C286.096 10.912 289.467 11.7653 291.856 13.472C294.245 15.0933 295.44 17.696 295.44 21.28C295.44 21.7067 295.44 22.2187 295.44 22.816C295.44 23.328 295.355 23.8827 295.184 24.48C294.587 27.8933 293.264 30.7093 291.216 32.928C289.253 35.1467 286.907 37.024 284.176 38.56C281.445 40.0107 278.587 41.4187 275.6 42.784C272.699 44.1493 269.925 45.6853 267.28 47.392C264.72 49.0987 262.587 51.232 260.88 53.792C259.771 55.584 258.875 57.3333 258.192 59.04C257.509 60.6613 257.168 62.1547 257.168 63.52C257.168 65.1413 257.595 66.4213 258.448 67.36L257.04 69.28ZM251.664 84.768C250.725 84.768 249.829 84.4693 248.976 83.872C248.123 83.1893 247.44 82.5493 246.928 81.952C246.843 81.7813 247.141 81.44 247.824 80.928C248.592 80.3307 249.403 79.776 250.256 79.264C251.195 78.752 251.707 78.5387 251.792 78.624C252.475 78.9653 253.157 79.3493 253.84 79.776C254.523 80.1173 255.248 80.2453 256.016 80.16H256.528C256.955 80.16 257.168 80.288 257.168 80.544C257.168 80.8 256.869 81.2267 256.272 81.824C255.504 82.4213 254.693 83.0613 253.84 83.744C253.072 84.4267 252.347 84.768 251.664 84.768Z" fill="#2CD7AF"/>
</svg>
