<svg width="200" height="66" viewBox="0 0 200 66" fill="none" xmlns="http://www.w3.org/2000/svg">
<path d="M52.38 50.196C52.236 50.196 52.092 50.184 51.948 50.16C51.804 50.16 51.648 50.148 51.48 50.124C51.456 50.124 51.396 50.088 51.3 50.016C51.204 49.968 51.132 49.944 51.084 49.944C50.94 49.944 50.784 49.932 50.616 49.908C50.472 49.908 50.316 49.896 50.148 49.872C50.124 49.848 50.1 49.812 50.076 49.764C50.076 49.74 50.052 49.728 50.004 49.728C49.98 49.728 49.968 49.728 49.968 49.728C49.992 49.752 49.992 49.764 49.968 49.764C49.944 49.764 49.884 49.74 49.788 49.692C49.716 49.644 49.656 49.608 49.608 49.584V49.512C49.512 49.488 49.452 49.452 49.428 49.404C49.404 49.38 49.38 49.368 49.356 49.368H49.284C49.236 49.368 49.212 49.356 49.212 49.332C49.116 49.284 48.996 49.212 48.852 49.116C48.708 49.044 48.612 48.972 48.564 48.9C48.468 48.876 48.408 48.84 48.384 48.792C48.36 48.768 48.324 48.732 48.276 48.684C48.252 48.636 48.228 48.612 48.204 48.612C48.204 48.636 48.192 48.636 48.168 48.612C48.072 48.468 47.952 48.348 47.808 48.252C47.808 48.228 47.796 48.204 47.772 48.18C47.772 48.18 47.772 48.168 47.772 48.144C47.724 48.144 47.688 48.132 47.664 48.108C47.64 48.06 47.628 48.024 47.628 48C47.628 47.952 47.604 47.928 47.556 47.928C47.532 47.808 47.496 47.724 47.448 47.676C47.4 47.628 47.352 47.556 47.304 47.46C47.28 47.412 47.268 47.364 47.268 47.316C47.268 47.244 47.244 47.208 47.196 47.208V47.172C47.22 47.124 47.184 46.992 47.088 46.776C47.016 46.536 46.98 46.332 46.98 46.164L46.908 46.128C46.836 46.008 46.788 45.864 46.764 45.696C46.764 45.528 46.776 45.36 46.8 45.192C46.848 45 46.848 44.916 46.8 44.94C46.752 44.964 46.752 44.844 46.8 44.58L47.052 44.076C47.052 44.028 47.04 43.98 47.016 43.932C46.992 43.884 46.98 43.848 46.98 43.824C46.98 43.8 46.992 43.776 47.016 43.752C47.04 43.728 47.052 43.704 47.052 43.68C47.076 43.632 47.088 43.56 47.088 43.464C47.088 43.368 47.1 43.308 47.124 43.284C47.148 43.236 47.184 43.2 47.232 43.176C47.28 43.128 47.316 43.092 47.34 43.068L47.52 42.636C47.568 42.588 47.604 42.552 47.628 42.528C47.676 42.48 47.712 42.432 47.736 42.384C47.784 42.312 47.82 42.252 47.844 42.204C47.868 42.132 47.904 42.06 47.952 41.988C47.976 41.94 48.012 41.892 48.06 41.844C48.132 41.796 48.18 41.76 48.204 41.736C48.324 41.664 48.42 41.628 48.492 41.628C48.588 41.628 48.648 41.724 48.672 41.916L48.636 42.096C48.54 42.216 48.444 42.324 48.348 42.42C48.252 42.492 48.144 42.576 48.024 42.672C48.024 42.696 48.012 42.732 47.988 42.78C47.988 42.804 47.988 42.84 47.988 42.888C47.94 42.888 47.916 42.912 47.916 42.96C47.916 42.984 47.904 43.02 47.88 43.068C47.88 43.092 47.844 43.14 47.772 43.212C47.748 43.26 47.724 43.32 47.7 43.392C47.7 43.44 47.688 43.488 47.664 43.536L47.556 43.608L47.52 44.472C47.544 44.496 47.568 44.496 47.592 44.472C47.616 44.52 47.628 44.592 47.628 44.688V44.724L47.592 44.76V45.048C47.568 45.072 47.556 45.096 47.556 45.12C47.556 45.144 47.568 45.18 47.592 45.228C47.616 45.252 47.628 45.288 47.628 45.336C47.604 45.36 47.592 45.396 47.592 45.444C47.592 45.492 47.616 45.54 47.664 45.588V45.696C47.712 45.768 47.772 45.84 47.844 45.912C47.916 45.96 47.976 46.008 48.024 46.056L48.312 46.164C48.744 46.476 49.068 46.692 49.284 46.812C49.5 46.932 49.86 47.064 50.364 47.208C50.556 47.256 50.748 47.316 50.94 47.388C51.132 47.436 51.324 47.46 51.516 47.46C51.54 47.46 51.552 47.472 51.552 47.496C51.552 47.496 51.564 47.496 51.588 47.496C51.684 47.496 51.768 47.508 51.84 47.532C51.936 47.556 52.032 47.568 52.128 47.568C52.152 47.568 52.176 47.568 52.2 47.568C52.224 47.544 52.248 47.532 52.272 47.532C52.32 47.532 52.356 47.544 52.38 47.568C52.404 47.568 52.428 47.568 52.452 47.568C52.644 47.568 52.836 47.568 53.028 47.568C53.22 47.568 53.4 47.556 53.568 47.532C53.76 47.532 53.952 47.508 54.144 47.46C54.336 47.412 54.516 47.388 54.684 47.388C55.02 47.364 55.344 47.304 55.656 47.208C55.992 47.088 56.316 46.98 56.628 46.884C56.652 46.86 56.856 46.776 57.24 46.632C57.648 46.464 58.068 46.284 58.5 46.092C58.596 45.804 58.644 45.456 58.644 45.048C58.644 44.376 58.5 43.776 58.212 43.248C58.212 43.248 58.152 43.212 58.032 43.14C57.912 43.044 57.84 42.996 57.816 42.996V42.924C57.816 42.804 57.756 42.744 57.636 42.744C57.516 42.72 57.408 42.648 57.312 42.528C57.264 42.456 57.204 42.396 57.132 42.348V42.312C57.06 42.264 57.048 42.228 57.096 42.204C57.168 42.156 57.216 42.12 57.24 42.096L57.168 42.024H57.132C57.084 41.976 57.024 41.94 56.952 41.916C56.88 41.892 56.82 41.844 56.772 41.772L56.592 41.628C56.568 41.58 56.52 41.556 56.448 41.556C56.376 41.556 56.316 41.544 56.268 41.52C56.172 41.448 56.064 41.364 55.944 41.268C55.824 41.172 55.704 41.1 55.584 41.052H55.548C55.452 41.004 55.356 40.944 55.26 40.872C55.188 40.8 55.092 40.74 54.972 40.692C54.948 40.644 54.912 40.644 54.864 40.692C54.84 40.716 54.816 40.716 54.792 40.692C54.696 40.644 54.612 40.572 54.54 40.476C54.468 40.356 54.372 40.296 54.252 40.296H54.216C54.144 40.248 54.084 40.176 54.036 40.08C54.012 39.96 53.976 39.876 53.928 39.828C53.712 39.708 53.496 39.624 53.28 39.576C53.064 39.528 52.848 39.468 52.632 39.396C52.488 39.324 52.308 39.288 52.092 39.288C51.9 39.264 51.744 39.24 51.624 39.216C51.48 39.168 51.408 39.096 51.408 39C51.408 38.88 51.528 38.76 51.768 38.64C51.864 38.592 51.972 38.568 52.092 38.568C52.212 38.544 52.32 38.532 52.416 38.532C52.68 38.532 53.088 38.46 53.64 38.316C54.216 38.172 54.864 37.98 55.584 37.74C56.304 37.476 57 37.2 57.672 36.912C57.816 36.864 57.924 36.816 57.996 36.768C58.092 36.72 58.164 36.732 58.212 36.804C58.164 36.804 58.14 36.84 58.14 36.912C58.26 36.912 58.332 36.876 58.356 36.804C58.404 36.708 58.452 36.612 58.5 36.516H58.536L59.22 36.156C59.316 36.132 59.4 36.144 59.472 36.192C59.568 36.216 59.652 36.204 59.724 36.156C59.7 36.108 59.664 36.072 59.616 36.048C59.592 36 59.616 35.952 59.688 35.904C59.736 35.856 59.772 35.832 59.796 35.832C59.94 35.736 60.072 35.676 60.192 35.652C60.336 35.604 60.444 35.508 60.516 35.364C60.9 35.1 61.224 34.824 61.488 34.536C61.752 34.224 61.884 33.936 61.884 33.672C61.884 33.336 61.644 33.048 61.164 32.808C60.708 32.544 59.88 32.328 58.68 32.16C58.632 32.16 58.584 32.16 58.536 32.16C58.488 32.136 58.44 32.124 58.392 32.124C58.08 32.124 57.78 32.052 57.492 31.908C57.516 32.004 57.468 32.052 57.348 32.052C57.012 32.028 56.676 32.016 56.34 32.016C56.004 31.992 55.68 31.98 55.368 31.98C54.84 31.98 54.348 31.992 53.892 32.016C53.46 32.04 53.148 32.064 52.956 32.088C52.764 32.112 52.56 32.136 52.344 32.16C52.152 32.16 51.96 32.184 51.768 32.232C51.624 32.184 51.48 32.208 51.336 32.304H51.3C51.132 32.328 50.964 32.352 50.796 32.376C50.628 32.4 50.448 32.436 50.256 32.484C50.16 32.508 50.052 32.532 49.932 32.556C49.812 32.556 49.692 32.58 49.572 32.628L48.852 32.772C48.756 32.844 48.648 32.904 48.528 32.952C48.432 32.976 48.324 32.976 48.204 32.952H48.168L47.484 33.132H47.448C47.376 33.132 47.292 33.084 47.196 32.988C47.124 32.868 47.076 32.76 47.052 32.664C47.028 32.808 46.992 32.964 46.944 33.132C46.896 33.3 46.812 33.384 46.692 33.384L45.684 33.708C45.588 33.732 45.48 33.744 45.36 33.744C45.24 33.744 45.12 33.744 45 33.744C44.88 33.744 44.784 33.756 44.712 33.78C44.64 33.804 44.592 33.864 44.568 33.96C44.568 34.032 44.532 34.092 44.46 34.14C44.364 34.236 44.244 34.308 44.1 34.356C43.956 34.38 43.824 34.416 43.704 34.464H43.668C43.62 34.464 43.548 34.44 43.452 34.392C43.38 34.344 43.32 34.332 43.272 34.356C43.248 34.38 43.224 34.44 43.2 34.536C43.176 34.632 43.14 34.692 43.092 34.716V34.752C42.948 34.8 42.792 34.86 42.624 34.932C42.456 35.004 42.3 35.076 42.156 35.148C42.012 35.22 41.844 35.304 41.652 35.4C41.484 35.472 41.34 35.52 41.22 35.544C41.172 35.544 41.148 35.496 41.148 35.4C41.172 35.304 41.16 35.28 41.112 35.328C40.968 35.4 40.824 35.532 40.68 35.724C40.536 35.916 40.404 36.048 40.284 36.12C40.164 36.216 40.032 36.264 39.888 36.264C39.768 36.264 39.648 36.312 39.528 36.408C39.456 36.48 39.384 36.6 39.312 36.768C39.264 36.912 39.204 37.02 39.132 37.092C38.94 37.284 38.748 37.512 38.556 37.776C38.532 37.824 38.496 37.872 38.448 37.92C38.4 37.968 38.376 38.028 38.376 38.1H38.34C38.196 38.388 38.124 38.664 38.124 38.928C38.124 39.456 38.316 39.84 38.7 40.08C39.108 40.32 39.564 40.5 40.068 40.62C40.164 40.644 40.248 40.68 40.32 40.728C40.416 40.776 40.512 40.788 40.608 40.764C40.704 40.716 40.788 40.692 40.86 40.692C40.98 40.692 41.076 40.74 41.148 40.836L41.688 40.944C41.976 41.016 42.12 41.088 42.12 41.16C42.12 41.208 42.048 41.256 41.904 41.304C41.784 41.328 41.664 41.34 41.544 41.34C41.112 41.34 40.584 41.256 39.96 41.088C39.336 40.896 38.772 40.62 38.268 40.26C37.764 39.876 37.476 39.408 37.404 38.856C37.404 38.832 37.368 38.772 37.296 38.676C37.248 38.58 37.212 38.496 37.188 38.424C37.116 38.208 37.08 37.992 37.08 37.776C37.08 37.368 37.164 36.984 37.332 36.624C37.524 36.264 37.776 35.928 38.088 35.616C38.208 35.496 38.316 35.412 38.412 35.364C38.532 35.316 38.664 35.244 38.808 35.148C38.952 35.052 39.024 34.968 39.024 34.896C39.024 34.824 39.096 34.74 39.24 34.644C39.432 34.524 39.696 34.38 40.032 34.212C40.392 34.044 40.668 33.912 40.86 33.816C41.004 33.816 41.136 33.756 41.256 33.636C41.736 33.42 42.24 33.228 42.768 33.06C43.296 32.868 43.824 32.688 44.352 32.52C44.496 32.448 44.64 32.412 44.784 32.412C44.928 32.412 45.036 32.448 45.108 32.52C45.108 32.472 45.096 32.436 45.072 32.412C45.072 32.364 45.096 32.328 45.144 32.304C45.744 32.112 46.344 31.956 46.944 31.836C47.544 31.692 48.12 31.572 48.672 31.476H48.708C48.78 31.476 48.888 31.452 49.032 31.404H49.068C49.116 31.404 49.152 31.404 49.176 31.404C49.224 31.38 49.272 31.368 49.32 31.368C49.464 31.44 49.608 31.416 49.752 31.296C50.4 31.176 51 31.092 51.552 31.044C52.104 30.972 52.572 30.936 52.956 30.936H53.064C53.112 30.936 53.16 30.936 53.208 30.936C53.28 30.912 53.34 30.9 53.388 30.9H53.748C53.82 30.876 53.892 30.876 53.964 30.9C54.06 30.9 54.132 30.9 54.18 30.9H54.216C54.504 30.9 54.804 30.912 55.116 30.936C55.452 30.936 55.788 30.936 56.124 30.936H56.16C56.256 30.96 56.328 30.996 56.376 31.044C56.448 31.092 56.532 31.068 56.628 30.972C57.276 30.996 57.924 31.068 58.572 31.188C58.932 31.236 59.364 31.332 59.868 31.476C60.396 31.596 60.9 31.776 61.38 32.016C61.86 32.232 62.256 32.508 62.568 32.844C62.904 33.18 63.072 33.588 63.072 34.068C63.072 34.26 63.036 34.464 62.964 34.68C62.892 34.896 62.76 35.1 62.568 35.292C62.376 35.46 62.184 35.64 61.992 35.832L61.56 36.228L61.308 36.3L61.02 36.444C60.492 36.684 59.916 36.96 59.292 37.272C58.668 37.56 58.008 37.788 57.312 37.956L56.988 38.028H56.952V38.064H56.916C56.868 38.088 56.808 38.1 56.736 38.1C56.664 38.076 56.592 38.088 56.52 38.136C55.344 38.448 54.228 38.664 53.172 38.784C52.932 38.808 52.812 38.856 52.812 38.928C52.812 38.976 52.896 39.036 53.064 39.108C53.256 39.156 53.4 39.204 53.496 39.252C53.952 39.396 54.432 39.552 54.936 39.72C55.44 39.864 55.956 40.044 56.484 40.26C56.628 40.284 56.772 40.332 56.916 40.404C57.084 40.476 57.204 40.584 57.276 40.728C57.3 40.68 57.336 40.668 57.384 40.692C57.432 40.716 57.468 40.728 57.492 40.728C57.804 40.872 58.104 41.028 58.392 41.196C58.68 41.364 58.944 41.544 59.184 41.736C59.232 41.856 59.256 41.916 59.256 41.916C59.424 41.916 59.544 41.964 59.616 42.06C59.688 42.156 59.772 42.264 59.868 42.384C60.132 42.672 60.336 42.984 60.48 43.32C60.624 43.632 60.696 43.968 60.696 44.328C60.696 44.424 60.684 44.52 60.66 44.616C60.66 44.712 60.648 44.82 60.624 44.94C61.176 44.628 61.584 44.22 61.848 43.716C61.896 43.644 61.956 43.608 62.028 43.608C62.172 43.608 62.22 43.692 62.172 43.86C62.052 44.172 61.824 44.52 61.488 44.904C61.176 45.264 60.816 45.54 60.408 45.732C60.408 45.756 60.396 45.78 60.372 45.804C60.252 46.092 60.132 46.308 60.012 46.452C59.988 46.548 59.94 46.62 59.868 46.668C59.82 46.716 59.784 46.776 59.76 46.848L59.724 46.884L59.58 46.956C59.556 46.98 59.532 47.016 59.508 47.064C59.508 47.112 59.484 47.16 59.436 47.208C59.484 47.256 59.472 47.28 59.4 47.28C58.8 48 58.032 48.6 57.096 49.08H57.06C56.892 49.176 56.832 49.2 56.88 49.152C56.928 49.128 56.928 49.092 56.88 49.044H56.844C56.652 49.14 56.532 49.212 56.484 49.26C56.412 49.26 56.328 49.284 56.232 49.332C56.16 49.38 56.124 49.404 56.124 49.404H55.944C55.92 49.404 55.86 49.428 55.764 49.476C55.692 49.548 55.632 49.596 55.584 49.62C55.464 49.62 55.38 49.656 55.332 49.728C55.284 49.728 55.224 49.728 55.152 49.728C55.08 49.728 55.008 49.74 54.936 49.764C54.912 49.788 54.792 49.8 54.576 49.8C54.384 49.824 54.264 49.848 54.216 49.872C54.192 49.896 54.108 49.932 53.964 49.98C53.82 50.028 53.724 50.052 53.676 50.052C53.652 50.052 53.628 50.04 53.604 50.016C53.604 50.016 53.592 50.016 53.568 50.016C53.544 50.016 53.52 50.028 53.496 50.052C53.472 50.1 53.436 50.124 53.388 50.124C53.34 50.124 53.292 50.112 53.244 50.088C53.196 50.064 53.148 50.052 53.1 50.052C53.076 50.052 53.028 50.064 52.956 50.088C52.908 50.136 52.86 50.16 52.812 50.16C52.764 50.16 52.716 50.148 52.668 50.124C52.644 50.124 52.596 50.136 52.524 50.16C52.476 50.184 52.428 50.196 52.38 50.196ZM43.416 50.592C43.248 50.592 43.164 50.412 43.164 50.052C43.164 49.812 43.212 49.512 43.308 49.152C43.428 48.816 43.572 48.42 43.74 47.964C43.932 47.796 44.028 47.58 44.028 47.316C44.076 47.34 44.1 47.34 44.1 47.316C44.124 47.268 44.136 47.244 44.136 47.244C44.184 47.172 44.208 47.1 44.208 47.028C44.208 46.932 44.22 46.848 44.244 46.776C44.676 45.696 45.228 44.52 45.9 43.248C45.948 43.152 45.996 43.128 46.044 43.176C46.116 43.2 46.164 43.188 46.188 43.14C46.212 43.116 46.224 43.056 46.224 42.96C46.224 42.888 46.212 42.816 46.188 42.744C46.188 42.672 46.224 42.588 46.296 42.492L46.8 41.592C47.496 40.344 48.192 39.144 48.888 37.992C49.608 36.84 50.28 35.952 50.904 35.328L51.012 35.256L51.12 35.076C51.12 35.076 51.144 35.064 51.192 35.04C51.24 35.016 51.276 35.028 51.3 35.076C51.3 35.1 51.276 35.148 51.228 35.22C51.204 35.292 51.192 35.34 51.192 35.364C51.264 35.484 51.348 35.496 51.444 35.4C51.468 35.352 51.468 35.244 51.444 35.076C51.42 34.908 51.42 34.824 51.444 34.824C51.492 34.8 51.516 34.8 51.516 34.824C51.54 34.848 51.564 34.86 51.588 34.86C51.636 34.86 51.66 34.824 51.66 34.752C51.66 34.68 51.672 34.632 51.696 34.608C51.96 34.512 52.2 34.464 52.416 34.464C52.536 34.464 52.704 34.524 52.92 34.644C53.16 34.764 53.28 34.932 53.28 35.148C53.28 35.268 53.22 35.412 53.1 35.58C53.076 35.604 53.052 35.652 53.028 35.724C53.004 35.772 52.968 35.82 52.92 35.868C52.896 35.892 52.872 35.904 52.848 35.904C52.848 35.88 52.824 35.88 52.776 35.904C52.752 35.928 52.716 35.94 52.668 35.94C52.644 35.916 52.608 35.904 52.56 35.904C52.512 35.904 52.5 35.94 52.524 36.012C52.572 36.084 52.584 36.132 52.56 36.156C52.536 36.18 52.512 36.18 52.488 36.156C52.464 36.132 52.428 36.144 52.38 36.192C52.356 36.216 52.368 36.24 52.416 36.264C52.488 36.264 52.5 36.288 52.452 36.336C52.308 36.48 52.128 36.636 51.912 36.804C51.72 36.948 51.528 37.092 51.336 37.236C51.312 37.26 51.288 37.26 51.264 37.236C51.24 37.188 51.216 37.176 51.192 37.2L50.94 37.56C50.7 37.8 50.46 38.052 50.22 38.316C49.98 38.58 49.728 38.88 49.464 39.216C49.392 39.36 49.308 39.492 49.212 39.612C49.116 39.732 48.984 39.78 48.816 39.756C48.816 39.78 48.84 39.816 48.888 39.864C48.936 39.888 48.936 39.936 48.888 40.008C48.48 40.584 48.072 41.184 47.664 41.808C47.256 42.432 46.872 43.08 46.512 43.752C46.344 44.04 46.14 44.412 45.9 44.868L45.576 45.516C45.552 45.588 45.516 45.624 45.468 45.624C45.444 45.6 45.408 45.588 45.36 45.588C45.408 45.684 45.432 45.768 45.432 45.84C45.432 46.032 45.324 46.236 45.108 46.452C44.796 47.172 44.508 47.856 44.244 48.504C43.98 49.152 43.776 49.752 43.632 50.304C43.584 50.496 43.512 50.592 43.416 50.592ZM52.524 49.584H52.596C52.644 49.608 52.704 49.584 52.776 49.512H52.92C53.016 49.464 53.076 49.44 53.1 49.44C53.148 49.44 53.184 49.464 53.208 49.512C53.232 49.584 53.292 49.584 53.388 49.512L53.532 49.476C53.58 49.428 53.628 49.404 53.676 49.404C53.724 49.404 53.772 49.392 53.82 49.368C53.868 49.344 53.892 49.308 53.892 49.26C53.916 49.236 53.952 49.236 54 49.26C54.048 49.26 54.072 49.26 54.072 49.26C54.096 49.284 54.12 49.296 54.144 49.296H54.18C54.252 49.296 54.348 49.26 54.468 49.188C54.588 49.116 54.648 49.08 54.648 49.08C54.696 49.08 54.744 49.044 54.792 48.972C54.84 48.924 54.876 48.9 54.9 48.9L55.188 48.828C55.332 48.756 55.44 48.72 55.512 48.72C55.536 48.672 55.608 48.624 55.728 48.576C55.848 48.528 55.908 48.492 55.908 48.468C55.956 48.42 56.028 48.384 56.124 48.36C56.22 48.336 56.28 48.312 56.304 48.288C56.4 48.288 56.628 48.144 56.988 47.856C57.372 47.568 57.696 47.196 57.96 46.74C57.984 46.692 57.912 46.704 57.744 46.776C57.576 46.848 57.396 46.932 57.204 47.028C57.036 47.1 56.94 47.136 56.916 47.136C56.892 47.136 56.832 47.184 56.736 47.28C56.64 47.352 56.58 47.388 56.556 47.388C56.508 47.436 56.46 47.46 56.412 47.46C56.412 47.46 56.364 47.436 56.268 47.388V47.46C56.22 47.46 56.184 47.472 56.16 47.496C56.136 47.496 56.1 47.496 56.052 47.496C56.004 47.496 55.932 47.52 55.836 47.568C55.74 47.616 55.68 47.64 55.656 47.64C55.632 47.64 55.596 47.652 55.548 47.676C55.524 47.676 55.488 47.664 55.44 47.64C55.344 47.736 55.164 47.808 54.9 47.856C54.636 47.904 54.444 47.928 54.324 47.928C54.3 47.928 54.288 47.928 54.288 47.928C54.312 47.904 54.312 47.892 54.288 47.892C54.264 47.892 54.24 47.904 54.216 47.928C54.192 47.928 54.156 47.928 54.108 47.928L54.036 48H53.748C53.676 48 53.592 48.012 53.496 48.036C53.424 48.06 53.364 48.06 53.316 48.036H53.244C53.22 48.036 53.184 48.036 53.136 48.036C53.112 48.06 53.076 48.072 53.028 48.072C53.004 48.072 52.98 48.06 52.956 48.036C52.956 48.012 52.932 47.988 52.884 47.964C52.86 47.964 52.836 47.976 52.812 48C52.788 48.048 52.752 48.072 52.704 48.072C52.68 48.072 52.656 48.06 52.632 48.036C52.632 48.036 52.62 48.036 52.596 48.036H52.452C52.452 48.06 52.428 48.072 52.38 48.072C52.356 48.072 52.344 48.06 52.344 48.036C52.344 48.036 52.332 48.036 52.308 48.036C52.26 48.036 52.2 48.048 52.128 48.072C52.08 48.096 52.032 48.108 51.984 48.108H51.912C51.912 48.06 51.888 48.024 51.84 48V48.036H51.516C51.372 48.012 51.228 47.964 51.084 47.892C50.94 47.82 50.808 47.772 50.688 47.748C50.664 47.748 50.64 47.76 50.616 47.784C50.616 47.808 50.604 47.82 50.58 47.82C50.556 47.82 50.532 47.808 50.508 47.784C50.508 47.76 50.496 47.748 50.472 47.748C50.448 47.748 50.424 47.76 50.4 47.784C50.4 47.784 50.376 47.76 50.328 47.712C50.28 47.712 50.184 47.688 50.04 47.64C50.04 47.568 50.004 47.532 49.932 47.532C49.932 47.484 49.788 47.424 49.5 47.352C49.212 47.28 49.044 47.232 48.996 47.208C48.972 47.184 48.924 47.148 48.852 47.1C48.804 47.052 48.768 47.052 48.744 47.1C48.672 47.076 48.576 47.016 48.456 46.92C48.336 46.8 48.24 46.74 48.168 46.74L48.024 46.524H47.988L47.88 46.704C47.88 46.728 47.892 46.788 47.916 46.884C47.964 46.98 47.976 47.052 47.952 47.1C48 47.124 48.024 47.172 48.024 47.244C48.024 47.316 48.048 47.352 48.096 47.352C48.096 47.496 48.144 47.64 48.24 47.784C48.24 47.808 48.3 47.856 48.42 47.928C48.564 48 48.624 48.048 48.6 48.072C48.696 48.168 48.744 48.24 48.744 48.288C48.84 48.384 48.888 48.456 48.888 48.504C48.912 48.528 48.924 48.54 48.924 48.54C48.948 48.54 48.96 48.54 48.96 48.54C48.984 48.588 49.044 48.672 49.14 48.792C49.26 48.912 49.344 48.972 49.392 48.972H49.464C49.488 48.996 49.536 49.044 49.608 49.116C49.704 49.188 49.764 49.224 49.788 49.224H49.824C50.016 49.224 50.208 49.248 50.4 49.296C50.616 49.368 50.82 49.416 51.012 49.44C51.012 49.44 51.036 49.452 51.084 49.476C51.156 49.5 51.228 49.524 51.3 49.548C51.492 49.572 51.72 49.572 51.984 49.548C52.248 49.548 52.428 49.56 52.524 49.584ZM71.9615 49.116C71.8895 49.116 71.7695 49.104 71.6015 49.08C71.4575 49.08 71.3735 49.068 71.3495 49.044C71.3255 48.996 71.3495 48.948 71.4215 48.9C71.5175 48.876 71.5175 48.852 71.4215 48.828C71.3255 48.804 71.2535 48.756 71.2055 48.684C71.1575 48.636 71.0735 48.612 70.9535 48.612C70.8335 48.612 70.6655 48.66 70.4495 48.756C70.2335 48.852 70.0895 48.888 70.0175 48.864C69.5135 48.744 69.0215 48.576 68.5415 48.36C68.0855 48.168 67.6535 47.916 67.2455 47.604C67.1975 47.556 67.1615 47.472 67.1375 47.352C67.1135 47.232 67.0295 47.16 66.8855 47.136C66.7175 47.112 66.5855 47.028 66.4895 46.884C66.3935 46.716 66.2735 46.572 66.1295 46.452C65.9615 46.308 65.8415 46.14 65.7695 45.948C65.7215 45.732 65.6735 45.528 65.6255 45.336C65.5295 45.072 65.4695 44.832 65.4455 44.616C65.4455 44.4 65.4455 44.148 65.4455 43.86C65.4455 43.668 65.4815 43.32 65.5535 42.816C65.6495 42.312 65.6975 41.964 65.6975 41.772V41.736C65.8655 41.352 65.9615 41.088 65.9855 40.944C66.0335 40.8 66.0695 40.692 66.0935 40.62C66.1175 40.524 66.1895 40.392 66.3095 40.224C66.4295 40.056 66.6455 39.756 66.9575 39.324C67.1015 39.132 67.1855 39.024 67.2095 39C67.2575 38.976 67.3295 38.916 67.4255 38.82C67.5695 38.628 67.7375 38.4 67.9295 38.136C68.1215 37.872 68.3015 37.668 68.4695 37.524C68.7335 37.308 69.0455 37.08 69.4055 36.84C69.7655 36.576 70.0895 36.36 70.3775 36.192C70.4735 36.12 70.5575 36.084 70.6295 36.084C70.7015 36.06 70.7855 36.036 70.8815 36.012C70.9535 35.988 71.1095 35.904 71.3495 35.76C71.5895 35.592 71.8295 35.436 72.0695 35.292C72.3335 35.148 72.4895 35.088 72.5375 35.112C72.5615 35.112 72.5735 35.124 72.5735 35.148C72.5975 35.148 72.6215 35.148 72.6455 35.148C72.6935 35.148 72.7535 35.124 72.8255 35.076C72.8975 35.004 72.9575 34.956 73.0055 34.932C73.2695 34.764 73.5455 34.68 73.8335 34.68C74.0495 34.656 74.2295 34.62 74.3735 34.572C74.5175 34.524 74.6735 34.476 74.8415 34.428C74.9855 34.38 75.2255 34.32 75.5615 34.248C75.8975 34.176 76.2095 34.14 76.4975 34.14C76.6655 34.14 76.7975 34.164 76.8935 34.212C77.0375 34.284 77.1335 34.32 77.1815 34.32C77.2295 34.32 77.2775 34.32 77.3255 34.32C77.3735 34.296 77.4335 34.272 77.5055 34.248C77.5775 34.224 77.6615 34.212 77.7575 34.212C77.8055 34.212 77.8415 34.236 77.8655 34.284C77.9135 34.308 77.9855 34.368 78.0815 34.464C78.1055 34.488 78.1535 34.5 78.2255 34.5C78.2735 34.5 78.3215 34.488 78.3695 34.464C78.4415 34.44 78.5015 34.428 78.5495 34.428C78.6695 34.428 78.7535 34.476 78.8015 34.572C78.8735 34.644 78.9575 34.692 79.0535 34.716C79.1735 34.74 79.2815 34.764 79.3775 34.788C79.4735 34.788 79.5695 34.812 79.6655 34.86C79.8815 34.956 80.1095 35.124 80.3495 35.364C80.6135 35.58 80.7695 35.82 80.8175 36.084C80.8175 36.132 80.8175 36.204 80.8175 36.3C80.8175 36.372 80.7695 36.372 80.6735 36.3C80.3375 35.988 80.0135 35.724 79.7015 35.508C79.4135 35.268 79.0175 35.148 78.5135 35.148C78.0575 35.148 77.4935 35.196 76.8215 35.292C76.1495 35.388 75.5015 35.532 74.8775 35.724C74.2535 35.892 73.7615 36.096 73.4015 36.336C73.2815 36.432 73.1975 36.504 73.1495 36.552C73.1015 36.576 72.9815 36.588 72.7895 36.588C72.5495 36.588 72.3095 36.684 72.0695 36.876C71.8535 37.044 71.6375 37.188 71.4215 37.308C71.3255 37.356 71.2055 37.392 71.0615 37.416C70.9175 37.44 70.8095 37.488 70.7375 37.56C70.6895 37.608 70.6655 37.644 70.6655 37.668C70.6655 37.692 70.6415 37.728 70.5935 37.776L70.5575 37.812C70.2695 38.1 69.9815 38.316 69.6935 38.46C69.4295 38.604 69.1295 38.808 68.7935 39.072C68.7695 39.072 68.6975 39.168 68.5775 39.36C68.4575 39.528 68.3375 39.696 68.2175 39.864C68.0975 40.032 68.0135 40.128 67.9655 40.152C67.7735 40.2 67.6055 40.332 67.4615 40.548C67.3175 40.74 67.2095 40.908 67.1375 41.052C67.0655 41.148 66.9695 41.268 66.8495 41.412C66.7535 41.532 66.6695 41.652 66.5975 41.772C66.4295 42.084 66.3095 42.42 66.2375 42.78C66.1655 43.14 66.1295 43.512 66.1295 43.896C66.1295 44.064 66.1295 44.244 66.1295 44.436C66.1535 44.628 66.1775 44.82 66.2015 45.012C66.2255 45.18 66.2375 45.3 66.2375 45.372C66.2375 45.42 66.2975 45.504 66.4175 45.624C66.5375 45.768 66.6335 45.924 66.7055 46.092C66.8015 46.236 66.9095 46.368 67.0295 46.488C67.0535 46.512 67.0655 46.548 67.0655 46.596C67.0655 46.788 67.0895 46.896 67.1375 46.92C67.2095 46.944 67.2815 46.956 67.3535 46.956C67.4255 46.956 67.4855 47.04 67.5335 47.208L67.6055 47.28C67.8935 47.328 68.1575 47.424 68.3975 47.568C68.6375 47.688 68.8895 47.784 69.1535 47.856C69.3215 47.88 69.4895 47.916 69.6575 47.964C69.8495 47.988 70.0175 48.024 70.1615 48.072C70.2335 48.096 70.2935 48.132 70.3415 48.18C70.4135 48.252 70.4615 48.3 70.4855 48.324H70.5215C70.5695 48.324 70.6055 48.3 70.6295 48.252C70.6775 48.204 70.7375 48.18 70.8095 48.18C70.8815 48.18 70.9775 48.168 71.0975 48.144C71.2175 48.144 71.3015 48.168 71.3495 48.216C71.4695 48.288 71.5775 48.324 71.6735 48.324C71.7695 48.324 71.8655 48.3 71.9615 48.252C72.0095 48.228 72.1295 48.216 72.3215 48.216C72.5375 48.216 72.6575 48.216 72.6815 48.216C72.7295 48.24 72.7895 48.276 72.8615 48.324C72.9575 48.372 73.0415 48.384 73.1135 48.36C73.1615 48.312 73.1735 48.276 73.1495 48.252C73.1495 48.228 73.1975 48.204 73.2935 48.18L73.9775 48.108C74.0255 48.084 74.0735 48.072 74.1215 48.072C74.3375 48.048 74.5895 48 74.8775 47.928C75.1895 47.832 75.4295 47.772 75.5975 47.748C75.8855 47.748 76.1855 47.652 76.4975 47.46C76.8575 47.268 77.2295 47.1 77.6135 46.956C77.9975 46.788 78.3815 46.632 78.7655 46.488C79.0295 46.392 79.2575 46.272 79.4495 46.128C79.6415 45.984 79.8335 45.84 80.0255 45.696C80.2175 45.576 80.3975 45.456 80.5655 45.336C80.7575 45.216 80.9255 45.096 81.0695 44.976C81.1415 44.904 81.2015 44.82 81.2495 44.724C81.2975 44.628 81.3695 44.556 81.4655 44.508C82.0895 44.148 82.5935 43.74 82.9775 43.284C83.3615 42.828 83.8175 42.372 84.3455 41.916C84.4655 41.796 84.5495 41.7 84.5975 41.628C84.6455 41.556 84.7055 41.46 84.7775 41.34C84.9455 41.076 85.1615 40.812 85.4255 40.548C85.6895 40.26 85.9055 39.924 86.0735 39.54C86.1455 39.372 86.2535 39.264 86.3975 39.216C86.5415 39.144 86.6255 39.048 86.6495 38.928C86.6495 38.928 86.6135 38.832 86.5415 38.64C86.4935 38.424 86.5295 38.28 86.6495 38.208C86.7695 38.136 86.8295 38.052 86.8295 37.956C86.8295 37.812 86.7575 37.68 86.6135 37.56C86.4935 37.416 86.4335 37.296 86.4335 37.2C86.4575 36.576 86.4095 36.084 86.2895 35.724C86.1935 35.34 86.0135 34.992 85.7495 34.68C85.4855 34.368 85.1495 34.02 84.7415 33.636C84.2855 33.204 83.6615 32.892 82.8695 32.7C82.1015 32.484 81.4055 32.34 80.7815 32.268C80.6375 32.268 80.4815 32.232 80.3135 32.16C80.1695 32.088 80.0255 32.076 79.8815 32.124C79.8335 32.148 79.7135 32.16 79.5215 32.16C79.3535 32.16 79.1615 32.16 78.9455 32.16C78.7295 32.136 78.5975 32.112 78.5495 32.088C78.3095 32.04 78.0935 32.052 77.9015 32.124C77.7095 32.172 77.5055 32.196 77.2895 32.196C77.1455 32.196 77.0375 32.184 76.9655 32.16C76.8935 32.136 76.8215 32.124 76.7495 32.124C76.6535 32.124 76.5695 32.148 76.4975 32.196C76.4495 32.22 76.3655 32.256 76.2455 32.304C75.5735 32.544 74.8535 32.724 74.0855 32.844C74.0615 32.844 73.8815 32.892 73.5455 32.988C73.2095 33.084 72.8735 33.192 72.5375 33.312C72.2015 33.408 71.9975 33.468 71.9255 33.492C71.6855 33.588 71.4575 33.672 71.2415 33.744C71.0255 33.816 70.8215 33.924 70.6295 34.068C70.5815 34.092 70.5215 34.128 70.4495 34.176C70.3775 34.224 70.3055 34.248 70.2335 34.248C70.0655 34.272 69.9215 34.332 69.8015 34.428C69.7055 34.5 69.5975 34.572 69.4775 34.644C69.3815 34.716 69.2495 34.764 69.0815 34.788C68.9375 34.812 68.8175 34.86 68.7215 34.932C68.6735 34.956 68.6495 35.028 68.6495 35.148C68.6735 35.268 68.6495 35.34 68.5775 35.364C68.4815 35.412 68.3615 35.448 68.2175 35.472C68.0975 35.472 67.9775 35.484 67.8575 35.508C67.6895 35.532 67.5215 35.652 67.3535 35.868C67.1855 36.06 67.0415 36.216 66.9215 36.336C66.7775 36.432 66.5855 36.612 66.3455 36.876C66.1055 37.116 65.9135 37.284 65.7695 37.38C65.6495 37.452 65.5295 37.5 65.4095 37.524C65.2895 37.548 65.2175 37.668 65.1935 37.884L64.7255 38.316C64.5575 38.34 64.4495 38.412 64.4015 38.532C64.3535 38.628 64.2695 38.724 64.1495 38.82C63.9575 38.964 63.8375 39.072 63.7895 39.144C63.7655 39.192 63.6575 39.3 63.4655 39.468C63.2975 39.636 63.1415 39.72 62.9975 39.72C62.9255 39.72 62.8895 39.684 62.8895 39.612C62.8895 39.444 62.9975 39.204 63.2135 38.892C63.4295 38.772 63.5855 38.604 63.6815 38.388C63.7775 38.172 63.9215 37.992 64.1135 37.848C64.3055 37.728 64.4495 37.596 64.5455 37.452C64.6655 37.308 64.7855 37.152 64.9055 36.984C64.9535 36.936 64.9895 36.912 65.0135 36.912C65.2055 36.768 65.3615 36.612 65.4815 36.444C65.6255 36.252 65.8055 36.108 66.0215 36.012C66.2375 35.916 66.4175 35.796 66.5615 35.652C66.7055 35.484 66.8615 35.34 67.0295 35.22C68.2055 34.404 69.4895 33.672 70.8815 33.024C72.2735 32.352 73.6655 31.932 75.0575 31.764C75.2495 31.74 75.4175 31.716 75.5615 31.692C75.7295 31.644 75.8975 31.608 76.0655 31.584C76.1375 31.56 76.2935 31.536 76.5335 31.512C76.7975 31.464 77.0495 31.428 77.2895 31.404C77.5535 31.356 77.7095 31.344 77.7575 31.368C77.8295 31.368 77.9015 31.38 77.9735 31.404C78.0455 31.404 78.1055 31.404 78.1535 31.404C78.3215 31.404 78.4535 31.392 78.5495 31.368C78.6695 31.344 78.8135 31.332 78.9815 31.332C80.0135 31.356 80.9855 31.488 81.8975 31.728C82.8095 31.968 83.6975 32.364 84.5615 32.916C84.6815 33.012 84.7775 33.108 84.8495 33.204C84.9215 33.276 85.0295 33.336 85.1735 33.384C85.2935 33.456 85.4135 33.564 85.5335 33.708C85.7015 33.948 85.8935 34.188 86.1095 34.428C86.3255 34.644 86.5055 34.884 86.6495 35.148C86.9135 35.628 87.1055 36.132 87.2255 36.66C87.3695 37.188 87.4415 37.716 87.4415 38.244C87.4415 40.092 86.8295 41.664 85.6055 42.96C85.5095 43.056 85.3535 43.116 85.1375 43.14C84.9455 43.14 84.8255 43.164 84.7775 43.212C84.7535 43.236 84.7895 43.308 84.8855 43.428C84.9815 43.548 85.0055 43.632 84.9575 43.68C84.6215 44.016 84.2735 44.328 83.9135 44.616C83.8895 44.64 83.8655 44.604 83.8415 44.508C83.8175 44.388 83.7695 44.316 83.6975 44.292C83.6255 44.244 83.5775 44.316 83.5535 44.508C83.5535 44.7 83.5295 44.82 83.4815 44.868L83.1575 44.508C83.1095 44.532 83.1095 44.652 83.1575 44.868C83.2055 45.084 83.2055 45.216 83.1575 45.264C82.6295 45.648 82.0895 46.008 81.5375 46.344C80.9855 46.68 80.3975 46.992 79.7735 47.28C78.5255 47.88 77.2175 48.336 75.8495 48.648C74.5055 48.984 73.2095 49.14 71.9615 49.116ZM97.4146 49.116C97.3426 49.116 97.2226 49.104 97.0546 49.08C96.9106 49.08 96.8266 49.068 96.8026 49.044C96.7786 48.996 96.8026 48.948 96.8746 48.9C96.9706 48.876 96.9706 48.852 96.8746 48.828C96.7786 48.804 96.7066 48.756 96.6586 48.684C96.6106 48.636 96.5266 48.612 96.4066 48.612C96.2866 48.612 96.1186 48.66 95.9026 48.756C95.6866 48.852 95.5426 48.888 95.4706 48.864C94.9666 48.744 94.4746 48.576 93.9946 48.36C93.5386 48.168 93.1066 47.916 92.6986 47.604C92.6506 47.556 92.6146 47.472 92.5906 47.352C92.5666 47.232 92.4826 47.16 92.3386 47.136C92.1706 47.112 92.0386 47.028 91.9426 46.884C91.8466 46.716 91.7266 46.572 91.5826 46.452C91.4146 46.308 91.2946 46.14 91.2226 45.948C91.1746 45.732 91.1266 45.528 91.0786 45.336C90.9826 45.072 90.9226 44.832 90.8986 44.616C90.8986 44.4 90.8986 44.148 90.8986 43.86C90.8986 43.668 90.9346 43.32 91.0066 42.816C91.1026 42.312 91.1506 41.964 91.1506 41.772V41.736C91.3186 41.352 91.4146 41.088 91.4386 40.944C91.4866 40.8 91.5226 40.692 91.5466 40.62C91.5706 40.524 91.6426 40.392 91.7626 40.224C91.8826 40.056 92.0986 39.756 92.4106 39.324C92.5546 39.132 92.6386 39.024 92.6626 39C92.7106 38.976 92.7826 38.916 92.8786 38.82C93.0226 38.628 93.1906 38.4 93.3826 38.136C93.5746 37.872 93.7546 37.668 93.9226 37.524C94.1866 37.308 94.4986 37.08 94.8586 36.84C95.2186 36.576 95.5426 36.36 95.8306 36.192C95.9266 36.12 96.0106 36.084 96.0826 36.084C96.1546 36.06 96.2386 36.036 96.3346 36.012C96.4066 35.988 96.5626 35.904 96.8026 35.76C97.0426 35.592 97.2826 35.436 97.5226 35.292C97.7866 35.148 97.9426 35.088 97.9906 35.112C98.0146 35.112 98.0266 35.124 98.0266 35.148C98.0506 35.148 98.0746 35.148 98.0986 35.148C98.1466 35.148 98.2066 35.124 98.2786 35.076C98.3506 35.004 98.4106 34.956 98.4586 34.932C98.7226 34.764 98.9986 34.68 99.2866 34.68C99.5026 34.656 99.6826 34.62 99.8266 34.572C99.9706 34.524 100.127 34.476 100.295 34.428C100.439 34.38 100.679 34.32 101.015 34.248C101.351 34.176 101.663 34.14 101.951 34.14C102.119 34.14 102.251 34.164 102.347 34.212C102.491 34.284 102.587 34.32 102.635 34.32C102.683 34.32 102.731 34.32 102.779 34.32C102.827 34.296 102.887 34.272 102.959 34.248C103.031 34.224 103.115 34.212 103.211 34.212C103.259 34.212 103.295 34.236 103.319 34.284C103.367 34.308 103.439 34.368 103.535 34.464C103.559 34.488 103.607 34.5 103.679 34.5C103.727 34.5 103.775 34.488 103.823 34.464C103.895 34.44 103.955 34.428 104.003 34.428C104.123 34.428 104.207 34.476 104.255 34.572C104.327 34.644 104.411 34.692 104.507 34.716C104.627 34.74 104.735 34.764 104.831 34.788C104.927 34.788 105.023 34.812 105.119 34.86C105.335 34.956 105.563 35.124 105.803 35.364C106.067 35.58 106.223 35.82 106.271 36.084C106.271 36.132 106.271 36.204 106.271 36.3C106.271 36.372 106.223 36.372 106.127 36.3C105.791 35.988 105.467 35.724 105.155 35.508C104.867 35.268 104.471 35.148 103.967 35.148C103.511 35.148 102.947 35.196 102.275 35.292C101.603 35.388 100.955 35.532 100.331 35.724C99.7066 35.892 99.2146 36.096 98.8546 36.336C98.7346 36.432 98.6506 36.504 98.6026 36.552C98.5546 36.576 98.4346 36.588 98.2426 36.588C98.0026 36.588 97.7626 36.684 97.5226 36.876C97.3066 37.044 97.0906 37.188 96.8746 37.308C96.7786 37.356 96.6586 37.392 96.5146 37.416C96.3706 37.44 96.2626 37.488 96.1906 37.56C96.1426 37.608 96.1186 37.644 96.1186 37.668C96.1186 37.692 96.0946 37.728 96.0466 37.776L96.0106 37.812C95.7226 38.1 95.4346 38.316 95.1466 38.46C94.8826 38.604 94.5826 38.808 94.2466 39.072C94.2226 39.072 94.1506 39.168 94.0306 39.36C93.9106 39.528 93.7906 39.696 93.6706 39.864C93.5506 40.032 93.4666 40.128 93.4186 40.152C93.2266 40.2 93.0586 40.332 92.9146 40.548C92.7706 40.74 92.6626 40.908 92.5906 41.052C92.5186 41.148 92.4226 41.268 92.3026 41.412C92.2066 41.532 92.1226 41.652 92.0506 41.772C91.8826 42.084 91.7626 42.42 91.6906 42.78C91.6186 43.14 91.5826 43.512 91.5826 43.896C91.5826 44.064 91.5826 44.244 91.5826 44.436C91.6066 44.628 91.6306 44.82 91.6546 45.012C91.6786 45.18 91.6906 45.3 91.6906 45.372C91.6906 45.42 91.7506 45.504 91.8706 45.624C91.9906 45.768 92.0866 45.924 92.1586 46.092C92.2546 46.236 92.3626 46.368 92.4826 46.488C92.5066 46.512 92.5186 46.548 92.5186 46.596C92.5186 46.788 92.5426 46.896 92.5906 46.92C92.6626 46.944 92.7346 46.956 92.8066 46.956C92.8786 46.956 92.9386 47.04 92.9866 47.208L93.0586 47.28C93.3466 47.328 93.6106 47.424 93.8506 47.568C94.0906 47.688 94.3426 47.784 94.6066 47.856C94.7746 47.88 94.9426 47.916 95.1106 47.964C95.3026 47.988 95.4706 48.024 95.6146 48.072C95.6866 48.096 95.7466 48.132 95.7946 48.18C95.8666 48.252 95.9146 48.3 95.9386 48.324H95.9746C96.0226 48.324 96.0586 48.3 96.0826 48.252C96.1306 48.204 96.1906 48.18 96.2626 48.18C96.3346 48.18 96.4306 48.168 96.5506 48.144C96.6706 48.144 96.7546 48.168 96.8026 48.216C96.9226 48.288 97.0306 48.324 97.1266 48.324C97.2226 48.324 97.3186 48.3 97.4146 48.252C97.4626 48.228 97.5826 48.216 97.7746 48.216C97.9906 48.216 98.1106 48.216 98.1346 48.216C98.1826 48.24 98.2426 48.276 98.3146 48.324C98.4106 48.372 98.4946 48.384 98.5666 48.36C98.6146 48.312 98.6266 48.276 98.6026 48.252C98.6026 48.228 98.6506 48.204 98.7466 48.18L99.4306 48.108C99.4786 48.084 99.5266 48.072 99.5746 48.072C99.7906 48.048 100.043 48 100.331 47.928C100.643 47.832 100.883 47.772 101.051 47.748C101.339 47.748 101.639 47.652 101.951 47.46C102.311 47.268 102.683 47.1 103.067 46.956C103.451 46.788 103.835 46.632 104.219 46.488C104.483 46.392 104.711 46.272 104.903 46.128C105.095 45.984 105.287 45.84 105.479 45.696C105.671 45.576 105.851 45.456 106.019 45.336C106.211 45.216 106.379 45.096 106.523 44.976C106.595 44.904 106.655 44.82 106.703 44.724C106.751 44.628 106.823 44.556 106.919 44.508C107.543 44.148 108.047 43.74 108.431 43.284C108.815 42.828 109.271 42.372 109.799 41.916C109.919 41.796 110.003 41.7 110.051 41.628C110.099 41.556 110.159 41.46 110.231 41.34C110.399 41.076 110.615 40.812 110.879 40.548C111.143 40.26 111.359 39.924 111.527 39.54C111.599 39.372 111.707 39.264 111.851 39.216C111.995 39.144 112.079 39.048 112.103 38.928C112.103 38.928 112.067 38.832 111.995 38.64C111.947 38.424 111.983 38.28 112.103 38.208C112.223 38.136 112.283 38.052 112.283 37.956C112.283 37.812 112.211 37.68 112.067 37.56C111.947 37.416 111.887 37.296 111.887 37.2C111.911 36.576 111.863 36.084 111.743 35.724C111.647 35.34 111.467 34.992 111.203 34.68C110.939 34.368 110.603 34.02 110.195 33.636C109.739 33.204 109.115 32.892 108.323 32.7C107.555 32.484 106.859 32.34 106.235 32.268C106.091 32.268 105.935 32.232 105.767 32.16C105.623 32.088 105.479 32.076 105.335 32.124C105.287 32.148 105.167 32.16 104.975 32.16C104.807 32.16 104.615 32.16 104.399 32.16C104.183 32.136 104.051 32.112 104.003 32.088C103.763 32.04 103.547 32.052 103.355 32.124C103.163 32.172 102.959 32.196 102.743 32.196C102.599 32.196 102.491 32.184 102.419 32.16C102.347 32.136 102.275 32.124 102.203 32.124C102.107 32.124 102.023 32.148 101.951 32.196C101.903 32.22 101.819 32.256 101.699 32.304C101.027 32.544 100.307 32.724 99.5386 32.844C99.5146 32.844 99.3346 32.892 98.9986 32.988C98.6626 33.084 98.3266 33.192 97.9906 33.312C97.6546 33.408 97.4506 33.468 97.3786 33.492C97.1386 33.588 96.9106 33.672 96.6946 33.744C96.4786 33.816 96.2746 33.924 96.0826 34.068C96.0346 34.092 95.9746 34.128 95.9026 34.176C95.8306 34.224 95.7586 34.248 95.6866 34.248C95.5186 34.272 95.3746 34.332 95.2546 34.428C95.1586 34.5 95.0506 34.572 94.9306 34.644C94.8346 34.716 94.7026 34.764 94.5346 34.788C94.3906 34.812 94.2706 34.86 94.1746 34.932C94.1266 34.956 94.1026 35.028 94.1026 35.148C94.1266 35.268 94.1026 35.34 94.0306 35.364C93.9346 35.412 93.8146 35.448 93.6706 35.472C93.5506 35.472 93.4306 35.484 93.3106 35.508C93.1426 35.532 92.9746 35.652 92.8066 35.868C92.6386 36.06 92.4946 36.216 92.3746 36.336C92.2306 36.432 92.0386 36.612 91.7986 36.876C91.5586 37.116 91.3666 37.284 91.2226 37.38C91.1026 37.452 90.9826 37.5 90.8626 37.524C90.7426 37.548 90.6706 37.668 90.6466 37.884L90.1786 38.316C90.0106 38.34 89.9026 38.412 89.8546 38.532C89.8066 38.628 89.7226 38.724 89.6026 38.82C89.4106 38.964 89.2906 39.072 89.2426 39.144C89.2186 39.192 89.1106 39.3 88.9186 39.468C88.7506 39.636 88.5946 39.72 88.4506 39.72C88.3786 39.72 88.3426 39.684 88.3426 39.612C88.3426 39.444 88.4506 39.204 88.6666 38.892C88.8826 38.772 89.0386 38.604 89.1346 38.388C89.2306 38.172 89.3746 37.992 89.5666 37.848C89.7586 37.728 89.9026 37.596 89.9986 37.452C90.1186 37.308 90.2386 37.152 90.3586 36.984C90.4066 36.936 90.4426 36.912 90.4666 36.912C90.6586 36.768 90.8146 36.612 90.9346 36.444C91.0786 36.252 91.2586 36.108 91.4746 36.012C91.6906 35.916 91.8706 35.796 92.0146 35.652C92.1586 35.484 92.3146 35.34 92.4826 35.22C93.6586 34.404 94.9426 33.672 96.3346 33.024C97.7266 32.352 99.1186 31.932 100.511 31.764C100.703 31.74 100.871 31.716 101.015 31.692C101.183 31.644 101.351 31.608 101.519 31.584C101.591 31.56 101.747 31.536 101.987 31.512C102.251 31.464 102.503 31.428 102.743 31.404C103.007 31.356 103.163 31.344 103.211 31.368C103.283 31.368 103.355 31.38 103.427 31.404C103.499 31.404 103.559 31.404 103.607 31.404C103.775 31.404 103.907 31.392 104.003 31.368C104.123 31.344 104.267 31.332 104.435 31.332C105.467 31.356 106.439 31.488 107.351 31.728C108.263 31.968 109.151 32.364 110.015 32.916C110.135 33.012 110.231 33.108 110.303 33.204C110.375 33.276 110.483 33.336 110.627 33.384C110.747 33.456 110.867 33.564 110.987 33.708C111.155 33.948 111.347 34.188 111.563 34.428C111.779 34.644 111.959 34.884 112.103 35.148C112.367 35.628 112.559 36.132 112.679 36.66C112.823 37.188 112.895 37.716 112.895 38.244C112.895 40.092 112.283 41.664 111.059 42.96C110.963 43.056 110.807 43.116 110.591 43.14C110.399 43.14 110.279 43.164 110.231 43.212C110.207 43.236 110.243 43.308 110.339 43.428C110.435 43.548 110.459 43.632 110.411 43.68C110.075 44.016 109.727 44.328 109.367 44.616C109.343 44.64 109.319 44.604 109.295 44.508C109.271 44.388 109.223 44.316 109.151 44.292C109.079 44.244 109.031 44.316 109.007 44.508C109.007 44.7 108.983 44.82 108.935 44.868L108.611 44.508C108.563 44.532 108.563 44.652 108.611 44.868C108.659 45.084 108.659 45.216 108.611 45.264C108.083 45.648 107.543 46.008 106.991 46.344C106.439 46.68 105.851 46.992 105.227 47.28C103.979 47.88 102.671 48.336 101.303 48.648C99.9586 48.984 98.6626 49.14 97.4146 49.116ZM149.58 55.56C149.508 55.56 149.436 55.548 149.364 55.524C149.292 55.524 149.22 55.524 149.148 55.524H149.076C148.98 55.476 148.944 55.392 148.968 55.272C148.992 55.176 148.944 55.128 148.824 55.128C148.728 55.128 148.668 55.176 148.644 55.272C148.62 55.368 148.56 55.416 148.464 55.416H148.392C148.392 55.416 148.38 55.404 148.356 55.38C148.356 55.38 148.344 55.38 148.32 55.38H148.248C148.152 55.332 148.068 55.26 147.996 55.164C147.924 55.068 147.852 55.044 147.78 55.092C147.684 55.164 147.576 55.2 147.456 55.2C147.288 55.2 147.12 55.14 146.952 55.02C146.808 54.9 146.676 54.792 146.556 54.696C146.532 54.672 146.484 54.672 146.412 54.696C146.364 54.72 146.316 54.72 146.268 54.696H146.232L145.944 54.552C145.92 54.552 145.896 54.54 145.872 54.516C145.656 54.444 145.452 54.336 145.26 54.192C145.092 54.048 144.888 53.952 144.648 53.904L144.612 53.868L143.856 53.436C143.856 53.436 143.844 53.436 143.82 53.436C143.82 53.436 143.808 53.424 143.784 53.4C143.736 53.208 143.676 53.1 143.604 53.076C143.532 53.076 143.4 53.076 143.208 53.076C143.208 53.052 143.184 53.04 143.136 53.04L142.632 52.716C142.632 52.692 142.62 52.68 142.596 52.68C142.596 52.68 142.584 52.656 142.56 52.608C142.536 52.584 142.512 52.548 142.488 52.5C142.176 52.38 141.876 52.224 141.588 52.032C141.324 51.864 141.072 51.66 140.832 51.42C140.784 51.372 140.712 51.336 140.616 51.312C140.544 51.288 140.484 51.252 140.436 51.204C140.388 51.156 140.364 51.132 140.364 51.132C140.028 50.916 139.728 50.688 139.464 50.448C139.44 50.448 139.428 50.436 139.428 50.412C139.428 50.412 139.416 50.412 139.392 50.412C139.344 50.292 139.26 50.208 139.14 50.16C139.02 50.112 138.912 50.04 138.816 49.944L138.744 49.872C138.648 49.776 138.552 49.692 138.456 49.62C138.36 49.572 138.264 49.5 138.168 49.404L138.132 49.368C138.108 49.344 138.096 49.32 138.096 49.296C138.096 49.176 138.036 49.116 137.916 49.116C137.844 49.116 137.772 49.116 137.7 49.116C137.628 49.116 137.58 49.056 137.556 48.936C137.556 48.912 137.544 48.888 137.52 48.864C137.424 48.672 137.28 48.504 137.088 48.36C136.896 48.24 136.716 48.096 136.548 47.928L136.296 47.676C136.2 47.556 136.08 47.436 135.936 47.316C135.816 47.196 135.792 47.052 135.864 46.884C135.768 46.86 135.672 46.848 135.576 46.848C135.48 46.848 135.408 46.812 135.36 46.74C135.312 46.644 135.264 46.56 135.216 46.488C135.168 46.392 135.084 46.32 134.964 46.272C134.964 46.248 134.952 46.236 134.928 46.236C134.928 46.236 134.928 46.224 134.928 46.2L134.208 45.372C134.208 45.348 134.196 45.324 134.172 45.3C134.148 45.276 134.112 45.252 134.064 45.228C134.016 45.204 133.992 45.18 133.992 45.156C133.968 44.892 133.848 44.7 133.632 44.58C133.44 44.46 133.308 44.316 133.236 44.148C133.212 44.028 133.176 43.932 133.128 43.86C133.104 43.764 133.044 43.68 132.948 43.608V43.536C132.54 42.792 132.336 42.132 132.336 41.556C132.336 41.052 132.468 40.56 132.732 40.08C132.996 39.6 133.38 39.108 133.884 38.604C134.028 38.46 134.172 38.316 134.316 38.172C134.484 38.028 134.64 37.872 134.784 37.704C134.808 37.704 134.82 37.704 134.82 37.704C134.844 37.68 134.856 37.668 134.856 37.668C135.096 37.548 135.276 37.392 135.396 37.2C135.516 36.984 135.672 36.792 135.864 36.624C135.864 36.6 135.864 36.588 135.864 36.588C135.888 36.588 135.9 36.576 135.9 36.552L136.98 35.472C137.196 35.424 137.34 35.328 137.412 35.184C137.484 35.04 137.568 34.92 137.664 34.824L137.7 34.788L138.384 34.14H138.492C138.636 34.14 138.72 34.092 138.744 33.996C138.792 33.9 138.852 33.792 138.924 33.672C138.948 33.672 138.96 33.672 138.96 33.672C138.96 33.648 138.96 33.636 138.96 33.636C138.984 33.636 138.996 33.636 138.996 33.636C138.996 33.612 139.008 33.6 139.032 33.6C139.032 33.576 139.032 33.564 139.032 33.564C139.056 33.564 139.068 33.564 139.068 33.564C139.212 33.516 139.32 33.456 139.392 33.384C139.488 33.288 139.584 33.18 139.68 33.06C139.68 33.036 139.692 33.024 139.716 33.024C139.716 32.976 139.74 32.952 139.788 32.952L139.824 32.916L140.076 32.7H140.112C140.784 32.148 141.48 31.632 142.2 31.152C142.224 31.152 142.236 31.152 142.236 31.152C142.236 31.128 142.236 31.116 142.236 31.116C142.284 31.092 142.332 31.092 142.38 31.116C142.428 31.116 142.464 31.104 142.488 31.08L142.812 30.864C142.812 30.84 142.824 30.828 142.848 30.828C142.872 30.78 142.908 30.768 142.956 30.792C143.004 30.816 143.064 30.816 143.136 30.792C143.208 30.744 143.244 30.672 143.244 30.576C143.268 30.456 143.328 30.384 143.424 30.36C143.688 30.24 143.928 30.132 144.144 30.036C144.384 29.94 144.612 29.82 144.828 29.676C144.852 29.676 144.876 29.664 144.9 29.64H144.972C144.972 29.616 144.996 29.604 145.044 29.604L145.188 29.532H145.584C145.704 29.532 145.764 29.496 145.764 29.424C145.764 29.328 145.812 29.28 145.908 29.28C145.932 29.256 145.956 29.244 145.98 29.244H146.016C146.112 29.196 146.196 29.16 146.268 29.136C146.364 29.112 146.46 29.088 146.556 29.064H146.628C146.7 29.064 146.76 29.052 146.808 29.028C146.88 29.004 146.952 28.992 147.024 28.992C147.048 28.968 147.072 28.956 147.096 28.956C147.216 29.028 147.312 29.064 147.384 29.064C147.504 29.064 147.648 29.004 147.816 28.884C147.816 28.86 147.816 28.848 147.816 28.848C147.84 28.848 147.852 28.848 147.852 28.848C148.284 28.848 148.68 28.92 149.04 29.064C149.064 29.088 149.088 29.1 149.112 29.1C149.232 29.148 149.328 29.22 149.4 29.316C149.472 29.412 149.568 29.472 149.688 29.496L149.724 29.532C149.844 29.628 149.94 29.736 150.012 29.856C150.108 29.952 150.192 30.06 150.264 30.18C150.264 30.18 150.264 30.192 150.264 30.216C150.288 30.216 150.3 30.228 150.3 30.252C150.348 30.348 150.384 30.444 150.408 30.54C150.456 30.612 150.504 30.684 150.552 30.756C150.552 30.78 150.552 30.792 150.552 30.792C150.576 30.792 150.588 30.804 150.588 30.828C150.612 30.924 150.636 31.032 150.66 31.152C150.684 31.248 150.72 31.344 150.768 31.44C150.792 31.464 150.804 31.488 150.804 31.512C150.756 31.68 150.648 31.764 150.48 31.764C150.336 31.764 150.24 31.692 150.192 31.548C150.096 31.044 149.844 30.696 149.436 30.504C149.436 30.48 149.424 30.468 149.4 30.468C149.088 30.348 148.788 30.288 148.5 30.288C148.332 30.288 148.2 30.3 148.104 30.324L148.068 30.36H147.78C147.756 30.384 147.732 30.396 147.708 30.396H147.636C147.588 30.372 147.516 30.36 147.42 30.36C147.348 30.36 147.276 30.372 147.204 30.396C147.132 30.42 147.06 30.456 146.988 30.504C146.964 30.504 146.94 30.516 146.916 30.54C146.916 30.54 146.904 30.54 146.88 30.54C146.832 30.54 146.736 30.564 146.592 30.612H146.448C146.352 30.612 146.304 30.564 146.304 30.468C146.304 30.372 146.268 30.312 146.196 30.288C146.1 30.288 146.028 30.336 145.98 30.432C145.956 30.528 145.92 30.6 145.872 30.648C145.848 30.672 145.836 30.696 145.836 30.72C145.836 30.792 145.8 30.828 145.728 30.828C145.728 30.852 145.716 30.864 145.692 30.864C145.668 30.864 145.644 30.876 145.62 30.9C145.62 30.9 145.608 30.9 145.584 30.9C145.536 30.9 145.512 30.912 145.512 30.936L145.332 30.828C145.284 30.828 145.26 30.864 145.26 30.936C145.26 30.984 145.212 31.044 145.116 31.116C145.092 31.116 145.08 31.128 145.08 31.152L144.648 31.296C144.624 31.32 144.6 31.332 144.576 31.332C144.264 31.332 143.988 31.452 143.748 31.692L143.712 31.728C142.896 32.112 142.128 32.52 141.408 32.952H141.372C141.228 33.048 141.084 33.096 140.94 33.096C140.796 33.072 140.736 33.156 140.76 33.348L140.724 33.384L140.436 33.564C140.412 33.588 140.388 33.6 140.364 33.6C140.172 33.696 139.992 33.828 139.824 33.996C139.8 33.996 139.776 34.008 139.752 34.032C139.656 34.104 139.548 34.176 139.428 34.248C139.308 34.296 139.188 34.368 139.068 34.464C138.948 34.56 138.828 34.656 138.708 34.752C138.588 34.824 138.48 34.92 138.384 35.04V35.076C137.592 35.652 136.884 36.252 136.26 36.876C136.236 36.876 136.224 36.888 136.224 36.912C136.224 36.912 136.212 36.912 136.188 36.912C136.02 37.032 135.852 37.152 135.684 37.272C135.54 37.392 135.432 37.548 135.36 37.74L135.324 37.776C135.012 38.088 134.676 38.46 134.316 38.892C133.956 39.3 133.692 39.684 133.524 40.044C133.476 40.188 133.44 40.344 133.416 40.512C133.416 40.656 133.416 40.824 133.416 41.016V41.088C133.392 41.136 133.38 41.22 133.38 41.34C133.38 41.508 133.464 41.7 133.632 41.916C133.656 41.916 133.668 41.928 133.668 41.952C133.812 42.312 134.028 42.744 134.316 43.248C134.34 43.248 134.352 43.26 134.352 43.284C134.4 43.428 134.436 43.56 134.46 43.68C134.484 43.8 134.58 43.872 134.748 43.896L134.82 43.968C135.012 44.232 135.216 44.508 135.432 44.796C135.672 45.06 135.912 45.336 136.152 45.624C136.152 45.648 136.152 45.672 136.152 45.696C136.176 45.696 136.188 45.696 136.188 45.696C136.236 45.72 136.26 45.78 136.26 45.876C136.26 46.044 136.284 46.14 136.332 46.164C136.38 46.188 136.428 46.176 136.476 46.128C136.548 46.08 136.596 46.08 136.62 46.128C136.908 46.512 137.256 46.872 137.664 47.208C137.664 47.208 137.664 47.22 137.664 47.244C137.664 47.244 137.676 47.244 137.7 47.244C137.892 47.412 138.084 47.592 138.276 47.784C138.492 47.952 138.696 48.132 138.888 48.324L138.924 48.36C138.972 48.432 139.02 48.48 139.068 48.504C139.116 48.552 139.152 48.624 139.176 48.72C139.2 48.816 139.272 48.864 139.392 48.864C139.512 48.888 139.608 48.936 139.68 49.008H139.716C139.908 49.176 140.1 49.332 140.292 49.476C140.484 49.62 140.688 49.764 140.904 49.908C140.904 49.932 140.916 49.944 140.94 49.944C141.012 49.968 141.036 50.016 141.012 50.088C141.012 50.16 141.024 50.22 141.048 50.268C141.12 50.316 141.204 50.34 141.3 50.34C141.42 50.364 141.528 50.4 141.624 50.448C141.624 50.472 141.624 50.484 141.624 50.484C141.648 50.484 141.66 50.484 141.66 50.484C142.212 50.868 142.788 51.24 143.388 51.6C143.988 51.984 144.612 52.344 145.26 52.68C146.172 53.16 147 53.508 147.744 53.724C148.512 53.94 149.196 54.048 149.796 54.048C150.588 54.048 151.2 53.892 151.632 53.58C152.064 53.268 152.28 52.884 152.28 52.428C152.28 52.212 152.244 52.02 152.172 51.852C152.172 51.828 152.16 51.816 152.136 51.816C152.136 51.816 152.136 51.804 152.136 51.78C152.064 51.444 151.932 51.204 151.74 51.06C151.716 51.036 151.704 51.012 151.704 50.988C151.656 50.892 151.524 50.808 151.308 50.736C151.308 50.736 151.296 50.736 151.272 50.736C151.272 50.736 151.272 50.724 151.272 50.7L151.164 50.628C151.164 50.604 151.152 50.592 151.128 50.592C151.032 50.472 150.948 50.364 150.876 50.268C150.828 50.196 150.708 50.16 150.516 50.16H150.48C150.432 50.064 150.408 49.992 150.408 49.944C150.408 49.848 150.456 49.764 150.552 49.692C150.648 49.62 150.744 49.62 150.84 49.692L151.056 49.836C151.08 49.836 151.092 49.836 151.092 49.836C151.092 49.86 151.104 49.872 151.128 49.872C151.224 49.992 151.308 50.1 151.38 50.196C151.476 50.292 151.608 50.352 151.776 50.376C151.776 50.4 151.776 50.412 151.776 50.412C151.8 50.412 151.812 50.424 151.812 50.448C151.836 50.448 151.872 50.472 151.92 50.52L151.992 50.592C152.088 50.76 152.232 50.928 152.424 51.096C152.424 51.144 152.436 51.168 152.46 51.168C152.628 51.432 152.772 51.744 152.892 52.104V52.284C152.892 52.38 152.904 52.464 152.928 52.536C152.976 52.608 153.012 52.68 153.036 52.752V52.824C153.036 53.496 152.808 54.108 152.352 54.66C151.92 55.236 151.248 55.524 150.336 55.524H150.3C150.228 55.476 150.156 55.44 150.084 55.416C150.036 55.392 149.988 55.38 149.94 55.38C149.844 55.38 149.748 55.44 149.652 55.56H149.58ZM123.012 50.628C121.956 50.628 120.936 50.172 119.952 49.26C119.808 49.212 119.688 49.104 119.592 48.936C119.496 48.792 119.4 48.672 119.304 48.576C119.136 48.528 119.028 48.456 118.98 48.36C118.932 48.264 118.884 48.144 118.836 48C118.836 47.976 118.812 47.94 118.764 47.892C118.74 47.868 118.716 47.844 118.692 47.82C118.668 47.796 118.644 47.772 118.62 47.748C118.596 47.748 118.584 47.748 118.584 47.748C118.608 47.724 118.62 47.712 118.62 47.712C118.524 47.52 118.464 47.388 118.44 47.316C118.416 47.22 118.32 47.1 118.152 46.956C118.104 46.908 118.056 46.836 118.008 46.74C117.984 46.62 117.96 46.524 117.936 46.452C117.672 45.828 117.432 45.192 117.216 44.544C117.024 43.872 116.928 43.188 116.928 42.492C116.928 42.252 117 42.072 117.144 41.952C117.288 41.832 117.444 41.772 117.612 41.772C117.924 41.772 118.128 41.928 118.224 42.24C118.272 42.336 118.32 42.444 118.368 42.564C118.44 42.66 118.476 42.756 118.476 42.852V43.212C118.476 43.356 118.512 43.392 118.584 43.32C118.68 43.224 118.74 43.236 118.764 43.356C118.812 43.524 118.848 43.632 118.872 43.68C118.896 43.704 118.992 43.764 119.16 43.86C119.208 43.956 119.268 44.052 119.34 44.148C119.412 44.244 119.484 44.34 119.556 44.436V44.508C119.556 44.652 119.604 44.76 119.7 44.832C119.796 44.88 119.904 44.94 120.024 45.012L120.492 45.516C120.468 45.564 120.456 45.612 120.456 45.66C120.456 45.804 120.528 45.9 120.672 45.948C120.84 45.996 120.984 46.044 121.104 46.092C121.128 46.116 121.26 46.236 121.5 46.452C121.764 46.644 121.944 46.764 122.04 46.812C122.16 46.884 122.292 46.968 122.436 47.064C122.58 47.136 122.724 47.196 122.868 47.244C122.916 47.244 122.964 47.268 123.012 47.316C123.444 47.484 123.84 47.568 124.2 47.568C124.536 47.568 124.92 47.496 125.352 47.352C125.424 47.328 125.484 47.316 125.532 47.316C125.604 47.292 125.652 47.28 125.676 47.28C125.748 47.28 125.784 47.304 125.784 47.352C125.784 47.472 125.676 47.592 125.46 47.712C125.46 47.76 125.424 47.784 125.352 47.784C125.256 47.808 125.16 47.844 125.064 47.892C124.968 47.94 124.872 47.952 124.776 47.928C124.656 47.928 124.56 47.916 124.488 47.892C124.416 47.868 124.32 47.904 124.2 48C123.888 47.976 123.54 47.904 123.156 47.784C122.772 47.664 122.448 47.532 122.184 47.388C122.16 47.22 122.052 47.136 121.86 47.136C121.668 47.112 121.512 47.052 121.392 46.956C121.296 46.836 121.212 46.704 121.14 46.56C121.092 46.416 120.972 46.404 120.78 46.524C120.684 46.428 120.6 46.356 120.528 46.308C120.456 46.236 120.348 46.2 120.204 46.2C120.156 46.152 120.084 46.104 119.988 46.056C119.916 46.008 119.892 45.936 119.916 45.84C119.82 45.768 119.628 45.648 119.34 45.48C119.076 45.288 118.92 45.168 118.872 45.12C118.656 44.88 118.416 44.676 118.152 44.508L118.044 44.436C118.356 45.372 118.728 46.284 119.16 47.172C119.616 48.06 120.276 48.78 121.14 49.332C121.548 49.572 121.92 49.764 122.256 49.908C122.616 50.076 122.964 50.16 123.3 50.16C123.924 50.16 124.584 49.848 125.28 49.224C126.168 48.408 126.912 47.364 127.512 46.092C128.136 44.82 128.7 43.572 129.204 42.348C129.252 42.3 129.288 42.264 129.312 42.24C129.336 42.216 129.36 42.192 129.384 42.168C129.456 42 129.504 41.808 129.528 41.592C129.576 41.352 129.624 41.148 129.672 40.98C129.792 40.836 129.9 40.668 129.996 40.476C130.116 40.26 130.176 40.056 130.176 39.864L130.248 39.684C130.296 39.66 130.284 39.624 130.212 39.576C130.14 39.528 130.188 39.492 130.356 39.468C130.524 39.204 130.62 38.94 130.644 38.676C130.692 38.388 130.764 38.184 130.86 38.064C130.932 37.944 131.004 37.836 131.076 37.74C131.148 37.644 131.16 37.524 131.112 37.38C131.136 37.284 131.208 37.056 131.328 36.696C131.472 36.312 131.628 35.892 131.796 35.436C131.964 34.98 132.108 34.584 132.228 34.248C132.348 33.888 132.408 33.684 132.408 33.636L132.768 32.592C132.096 32.616 131.412 32.652 130.716 32.7C130.02 32.748 129.336 32.856 128.664 33.024C128.688 33 128.676 32.976 128.628 32.952C128.58 32.904 128.544 32.88 128.52 32.88L128.484 32.844C128.388 32.82 128.364 32.844 128.412 32.916C128.484 32.964 128.472 33.012 128.376 33.06C128.16 33.084 127.908 33.144 127.62 33.24C127.356 33.312 127.116 33.348 126.9 33.348C126.804 33.372 126.696 33.384 126.576 33.384C126.456 33.36 126.336 33.348 126.216 33.348C125.856 33.372 125.496 33.468 125.136 33.636C124.8 33.804 124.452 33.948 124.092 34.068L123.444 34.248C123.18 34.368 122.892 34.452 122.58 34.5C122.268 34.548 121.98 34.632 121.716 34.752L121.752 34.788C121.656 34.86 121.536 34.908 121.392 34.932C121.248 34.956 121.116 34.992 120.996 35.04C120.708 35.136 120.408 35.256 120.096 35.4C119.808 35.52 119.508 35.628 119.196 35.724C119.028 35.772 118.86 35.82 118.692 35.868C118.548 35.892 118.38 35.94 118.188 36.012C118.092 36.036 118.008 36.06 117.936 36.084C117.864 36.084 117.78 36.084 117.684 36.084C117.468 36.084 117.276 36.036 117.108 35.94C117.012 35.892 116.868 35.76 116.676 35.544C116.508 35.304 116.364 35.064 116.244 34.824C116.124 34.56 116.076 34.368 116.1 34.248C116.124 34.176 116.28 34.092 116.568 33.996C116.856 33.876 117.192 33.768 117.576 33.672C117.96 33.552 118.308 33.456 118.62 33.384C118.956 33.288 119.172 33.228 119.268 33.204C119.316 33.18 119.448 33.156 119.664 33.132C119.88 33.084 120 33.108 120.024 33.204C120.048 33.252 120.024 33.324 119.952 33.42C119.88 33.492 119.82 33.552 119.772 33.6C119.772 33.624 119.736 33.672 119.664 33.744C119.616 33.816 119.616 33.84 119.664 33.816L120.924 33.492C121.116 33.444 121.344 33.432 121.608 33.456C121.896 33.456 122.112 33.408 122.256 33.312C122.304 33.264 122.328 33.216 122.328 33.168C122.352 33.12 122.4 33.096 122.472 33.096C122.64 33.048 122.916 33 123.3 32.952C123.708 32.904 123.96 32.832 124.056 32.736C124.248 32.688 124.452 32.664 124.668 32.664C124.884 32.64 125.076 32.58 125.244 32.484C125.316 32.46 125.544 32.412 125.928 32.34C126.336 32.268 126.792 32.196 127.296 32.124C127.824 32.028 128.292 31.956 128.7 31.908C129.108 31.836 129.348 31.8 129.42 31.8H129.456C129.552 31.8 129.648 31.788 129.744 31.764C129.84 31.74 129.936 31.728 130.032 31.728C130.224 31.728 130.32 31.812 130.32 31.98C130.344 32.004 130.404 32.016 130.5 32.016C130.716 32.016 130.884 31.956 131.004 31.836C131.1 31.812 131.172 31.776 131.22 31.728C131.292 31.68 131.376 31.644 131.472 31.62C131.736 31.572 132.012 31.56 132.3 31.584C132.612 31.584 132.888 31.584 133.128 31.584C133.296 31.224 133.476 30.984 133.668 30.864C133.86 30.72 134.148 30.648 134.532 30.648C134.748 30.648 134.892 30.732 134.964 30.9C135.06 31.044 135.12 31.212 135.144 31.404C135.144 31.452 135.144 31.512 135.144 31.584C135.168 31.632 135.18 31.692 135.18 31.764C135.18 32.172 135.084 32.532 134.892 32.844C134.676 33.228 134.376 33.456 133.992 33.528C133.968 33.6 133.872 33.852 133.704 34.284C133.536 34.716 133.356 35.196 133.164 35.724C132.972 36.228 132.792 36.684 132.624 37.092C132.48 37.476 132.396 37.692 132.372 37.74C132.3 37.836 132.228 37.932 132.156 38.028C132.084 38.124 132.036 38.232 132.012 38.352C131.988 38.592 131.88 38.928 131.688 39.36C131.52 39.792 131.328 40.224 131.112 40.656C130.92 41.064 130.764 41.4 130.644 41.664C130.5 41.76 130.38 41.844 130.284 41.916C130.188 41.964 130.212 42.072 130.356 42.24C130.284 42.408 130.212 42.492 130.14 42.492C130.068 42.468 129.972 42.444 129.852 42.42C129.876 42.54 129.912 42.624 129.96 42.672C130.008 42.696 130.044 42.768 130.068 42.888C129.876 43.32 129.636 43.848 129.348 44.472C129.06 45.072 128.772 45.552 128.484 45.912C128.316 45.984 128.184 46.056 128.088 46.128C127.992 46.2 127.992 46.344 128.088 46.56C128.04 46.608 128.004 46.668 127.98 46.74C127.956 46.812 127.932 46.884 127.908 46.956L127.62 47.388C127.524 47.46 127.428 47.544 127.332 47.64C127.236 47.712 127.188 47.832 127.188 48C127.092 48.144 127.008 48.252 126.936 48.324C126.792 48.372 126.672 48.432 126.576 48.504C126.48 48.576 126.432 48.708 126.432 48.9C125.952 49.428 125.412 49.848 124.812 50.16C124.236 50.472 123.636 50.628 123.012 50.628Z" fill="#2CD7AF"/>
<path d="M173.436 43.86C173.172 43.86 173.088 43.752 173.184 43.536C173.184 43.488 173.172 43.464 173.148 43.464C173.124 43.44 173.112 43.416 173.112 43.392C173.112 43.368 173.124 43.32 173.148 43.248C173.196 43.176 173.22 43.128 173.22 43.104C173.244 43.056 173.268 43.032 173.292 43.032C173.316 43.008 173.34 42.984 173.364 42.96C173.412 42.792 173.472 42.648 173.544 42.528V42.348C173.616 42.204 173.652 42.096 173.652 42.024C173.676 42.024 173.688 42.036 173.688 42.06C173.712 42.06 173.736 42.048 173.76 42.024C173.784 42 173.796 41.964 173.796 41.916C173.796 41.868 173.808 41.844 173.832 41.844L173.904 41.808C173.928 41.808 173.94 41.772 173.94 41.7C173.964 41.628 173.988 41.58 174.012 41.556C174.06 41.508 174.096 41.484 174.12 41.484C174.168 41.46 174.192 41.436 174.192 41.412L174.372 41.16L174.408 41.196C174.432 41.148 174.444 41.1 174.444 41.052C174.468 41.004 174.492 40.968 174.516 40.944L174.552 40.908C174.6 40.908 174.624 40.884 174.624 40.836C174.648 40.764 174.672 40.716 174.696 40.692L174.84 40.548C174.888 40.524 174.9 40.536 174.876 40.584C174.876 40.608 174.888 40.608 174.912 40.584C174.984 40.536 175.02 40.452 175.02 40.332C175.068 40.308 175.104 40.284 175.128 40.26C175.176 40.236 175.224 40.212 175.272 40.188C175.272 40.14 175.284 40.104 175.308 40.08C175.356 40.056 175.38 40.032 175.38 40.008C175.428 39.984 175.452 39.96 175.452 39.936C175.476 39.912 175.5 39.888 175.524 39.864C175.716 39.744 175.836 39.66 175.884 39.612C175.932 39.54 176.04 39.42 176.208 39.252L176.244 39.18H176.28C176.328 39.156 176.388 39.108 176.46 39.036C176.532 38.94 176.592 38.88 176.64 38.856C176.688 38.808 176.736 38.784 176.784 38.784C176.832 38.784 176.868 38.772 176.892 38.748C176.94 38.724 176.988 38.664 177.036 38.568L177.216 38.46C177.264 38.436 177.312 38.388 177.36 38.316C177.432 38.244 177.48 38.184 177.504 38.136C177.552 38.112 177.624 38.052 177.72 37.956C177.816 37.86 177.864 37.8 177.864 37.776C177.888 37.8 177.912 37.812 177.936 37.812C177.936 37.74 177.972 37.668 178.044 37.596H178.188C178.236 37.548 178.296 37.476 178.368 37.38C178.44 37.26 178.476 37.2 178.476 37.2H178.512C178.56 37.2 178.584 37.176 178.584 37.128C178.584 37.152 178.608 37.164 178.656 37.164C178.656 37.116 178.68 37.08 178.728 37.056C178.872 36.984 178.968 36.864 179.016 36.696C179.016 36.72 179.016 36.732 179.016 36.732C179.04 36.732 179.052 36.732 179.052 36.732C179.1 36.66 179.136 36.588 179.16 36.516C179.208 36.42 179.244 36.348 179.268 36.3C179.412 36.3 179.532 36.276 179.628 36.228C179.652 36.204 179.724 36.096 179.844 35.904C179.964 35.712 180.036 35.604 180.06 35.58H180.132L180.456 35.04C180.504 35.016 180.516 35.016 180.492 35.04C180.54 35.04 180.564 34.98 180.564 34.86C180.588 34.74 180.588 34.668 180.564 34.644C180.66 34.596 180.72 34.548 180.744 34.5C180.768 34.428 180.792 34.38 180.816 34.356L180.888 34.32C180.936 34.296 180.96 34.272 180.96 34.248C180.96 34.2 180.972 34.164 180.996 34.14C180.972 34.116 180.96 34.056 180.96 33.96C180.96 33.816 180.996 33.708 181.068 33.636C181.044 33.612 181.032 33.552 181.032 33.456C181.032 33.408 181.02 33.384 180.996 33.384C180.972 33.384 180.96 33.372 180.96 33.348C180.96 33.3 180.948 33.264 180.924 33.24C180.924 33.216 180.924 33.192 180.924 33.168C180.828 33.024 180.768 32.916 180.744 32.844C180.744 32.82 180.708 32.772 180.636 32.7C180.636 32.604 180.612 32.508 180.564 32.412C180.54 32.388 180.504 32.376 180.456 32.376C180.408 32.352 180.384 32.328 180.384 32.304C180.36 32.28 180.348 32.256 180.348 32.232C180.372 32.208 180.372 32.196 180.348 32.196H180.204C180.18 32.196 180.156 32.184 180.132 32.16C180.132 32.112 180.108 32.088 180.06 32.088L180.024 32.16C179.976 32.16 179.916 32.124 179.844 32.052C179.796 31.98 179.736 31.932 179.664 31.908C179.592 31.86 179.508 31.824 179.412 31.8C179.316 31.752 179.232 31.716 179.16 31.692C179.064 31.644 178.956 31.62 178.836 31.62C178.74 31.596 178.632 31.572 178.512 31.548C178.344 31.548 178.176 31.548 178.008 31.548C177.864 31.548 177.708 31.536 177.54 31.512C177.516 31.512 177.48 31.512 177.432 31.512C177.408 31.488 177.372 31.476 177.324 31.476C177.276 31.476 177.228 31.488 177.18 31.512C177.132 31.512 177.096 31.512 177.072 31.512C177 31.536 176.928 31.548 176.856 31.548C176.784 31.524 176.724 31.524 176.676 31.548C176.652 31.572 176.64 31.596 176.64 31.62C176.64 31.596 176.628 31.584 176.604 31.584C176.604 31.56 176.604 31.548 176.604 31.548C176.532 31.572 176.436 31.584 176.316 31.584C176.22 31.584 176.16 31.596 176.136 31.62C176.112 31.644 176.1 31.668 176.1 31.692C176.028 31.62 175.98 31.584 175.956 31.584C175.908 31.632 175.872 31.656 175.848 31.656C175.872 31.68 175.884 31.704 175.884 31.728C175.836 31.68 175.764 31.656 175.668 31.656C175.572 31.656 175.536 31.668 175.56 31.692C175.584 31.692 175.584 31.704 175.56 31.728C175.536 31.752 175.44 31.764 175.272 31.764C175.128 31.764 175.008 31.8 174.912 31.872C174.888 31.872 174.876 31.872 174.876 31.872C174.9 31.848 174.888 31.848 174.84 31.872C174.816 31.896 174.816 31.908 174.84 31.908C174.864 31.908 174.864 31.92 174.84 31.944C174.816 31.944 174.708 31.968 174.516 32.016C174.324 32.04 174.204 32.064 174.156 32.088C174.132 32.112 174.12 32.124 174.12 32.124C174.144 32.124 174.132 32.136 174.084 32.16C174.06 32.184 173.976 32.22 173.832 32.268C173.712 32.292 173.592 32.316 173.472 32.34L173.436 32.412C173.412 32.412 173.364 32.424 173.292 32.448C173.244 32.472 173.196 32.496 173.148 32.52C173.1 32.544 173.04 32.568 172.968 32.592C172.896 32.616 172.836 32.652 172.788 32.7C172.764 32.676 172.752 32.664 172.752 32.664C172.704 32.664 172.68 32.676 172.68 32.7C172.704 32.724 172.704 32.736 172.68 32.736H172.644C172.572 32.736 172.548 32.748 172.572 32.772C172.596 32.772 172.584 32.784 172.536 32.808C172.488 32.808 172.464 32.808 172.464 32.808C172.44 32.808 172.416 32.832 172.392 32.88C172.368 32.904 172.344 32.916 172.32 32.916C172.296 32.94 172.284 32.94 172.284 32.916C172.308 32.892 172.296 32.892 172.248 32.916C172.224 32.94 172.14 33.012 171.996 33.132C171.876 33.228 171.804 33.288 171.78 33.312C171.756 33.336 171.744 33.336 171.744 33.312C171.768 33.288 171.756 33.276 171.708 33.276C171.684 33.3 171.648 33.348 171.6 33.42C171.552 33.468 171.504 33.504 171.456 33.528L171.276 33.6L171.024 33.888L170.88 34.104C170.856 34.152 170.808 34.224 170.736 34.32C170.664 34.392 170.64 34.452 170.664 34.5C170.664 34.524 170.664 34.548 170.664 34.572C170.688 34.572 170.7 34.572 170.7 34.572C170.7 34.548 170.676 34.56 170.628 34.608C170.604 34.632 170.58 34.704 170.556 34.824C170.532 34.92 170.532 34.992 170.556 35.04L170.664 35.364C170.64 35.388 170.628 35.424 170.628 35.472C170.652 35.496 170.688 35.52 170.736 35.544C170.784 35.544 170.82 35.568 170.844 35.616V35.724L171.78 36.372C171.828 36.396 171.876 36.408 171.924 36.408C171.972 36.384 172.008 36.396 172.032 36.444C172.104 36.516 172.152 36.552 172.176 36.552C172.176 36.504 172.2 36.48 172.248 36.48C172.296 36.552 172.38 36.612 172.5 36.66C172.644 36.708 172.752 36.708 172.824 36.66C172.848 36.732 172.884 36.768 172.932 36.768C173.004 36.744 173.076 36.732 173.148 36.732C173.244 36.732 173.34 36.756 173.436 36.804C173.532 36.828 173.628 36.84 173.724 36.84H173.76C173.904 36.84 174.024 36.852 174.12 36.876C174.216 36.9 174.312 36.924 174.408 36.948C174.36 36.948 174.336 36.984 174.336 37.056L173.796 37.092C173.7 37.092 173.604 37.08 173.508 37.056C173.436 37.032 173.352 37.02 173.256 37.02L173.076 37.092C172.98 37.092 172.908 37.092 172.86 37.092C172.812 37.068 172.764 37.068 172.716 37.092C172.716 37.092 172.716 37.104 172.716 37.128H172.68C172.656 37.152 172.632 37.152 172.608 37.128C172.584 37.104 172.56 37.092 172.536 37.092L171.78 36.948C171.636 36.828 171.444 36.756 171.204 36.732C170.988 36.708 170.82 36.624 170.7 36.48C170.676 36.432 170.628 36.396 170.556 36.372C170.508 36.324 170.472 36.288 170.448 36.264C170.304 36.12 170.232 35.988 170.232 35.868C170.208 35.82 170.22 35.712 170.268 35.544C170.244 35.52 170.232 35.472 170.232 35.4C170.232 35.28 170.244 35.148 170.268 35.004C170.316 34.86 170.316 34.764 170.268 34.716C170.364 34.668 170.412 34.62 170.412 34.572C170.412 34.5 170.412 34.44 170.412 34.392C170.412 34.344 170.436 34.296 170.484 34.248C170.532 34.2 170.568 34.164 170.592 34.14L170.844 33.816V33.78C170.844 33.78 170.844 33.792 170.844 33.816C170.844 33.816 170.856 33.816 170.88 33.816C170.88 33.696 170.892 33.624 170.916 33.6L171.06 33.456C171.084 33.432 171.084 33.408 171.06 33.384C171.06 33.36 171.072 33.336 171.096 33.312C171.144 33.288 171.156 33.288 171.132 33.312C171.132 33.336 171.144 33.336 171.168 33.312C171.24 33.24 171.276 33.18 171.276 33.132C171.324 33.156 171.336 33.18 171.312 33.204L171.456 33.132C171.48 33.132 171.492 33.132 171.492 33.132C171.492 33.108 171.492 33.096 171.492 33.096C171.492 33.072 171.48 33.06 171.456 33.06C171.456 33.036 171.456 33.024 171.456 33.024L171.564 33.06C171.612 33.012 171.648 32.976 171.672 32.952C171.72 32.904 171.756 32.868 171.78 32.844C171.828 32.82 171.888 32.832 171.96 32.88C172.008 32.832 172.056 32.784 172.104 32.736C172.152 32.688 172.188 32.652 172.212 32.628L172.428 32.448C172.476 32.424 172.524 32.424 172.572 32.448C172.62 32.448 172.656 32.436 172.68 32.412C172.704 32.388 172.752 32.352 172.824 32.304C172.896 32.232 172.944 32.184 172.968 32.16C173.016 32.136 173.028 32.148 173.004 32.196C173.004 32.22 173.016 32.22 173.04 32.196L173.22 32.052C173.244 32.028 173.292 32.028 173.364 32.052C173.46 32.052 173.52 32.052 173.544 32.052L173.616 31.944C173.64 31.968 173.676 31.968 173.724 31.944L173.76 31.872L173.868 31.8C173.868 31.824 173.868 31.836 173.868 31.836C173.892 31.836 173.904 31.836 173.904 31.836C173.928 31.716 173.94 31.68 173.94 31.728C173.964 31.752 173.988 31.764 174.012 31.764C174.06 31.692 174.072 31.68 174.048 31.728C174.048 31.776 174.084 31.788 174.156 31.764C174.3 31.692 174.396 31.656 174.444 31.656C174.468 31.632 174.48 31.62 174.48 31.62H174.516L174.84 31.476C174.936 31.428 175.068 31.368 175.236 31.296C175.404 31.224 175.548 31.176 175.668 31.152C175.716 31.128 175.764 31.128 175.812 31.152C175.86 31.152 175.896 31.14 175.92 31.116C175.968 31.092 176.004 31.092 176.028 31.116C176.052 31.116 176.088 31.104 176.136 31.08C176.184 31.056 176.196 31.044 176.172 31.044C176.172 31.044 176.184 31.032 176.208 31.008C176.232 31.008 176.256 31.02 176.28 31.044C176.328 31.044 176.364 31.032 176.388 31.008C176.508 30.96 176.616 30.936 176.712 30.936C176.832 30.912 176.928 30.888 177 30.864C177.144 30.816 177.24 30.804 177.288 30.828C177.336 30.828 177.372 30.84 177.396 30.864C177.42 30.864 177.444 30.852 177.468 30.828C177.468 30.828 177.48 30.816 177.504 30.792C177.552 30.768 177.576 30.768 177.576 30.792C177.6 30.816 177.624 30.828 177.648 30.828L177.864 30.72C177.912 30.72 177.948 30.732 177.972 30.756C178.02 30.756 178.056 30.756 178.08 30.756C178.128 30.732 178.2 30.72 178.296 30.72C178.344 30.72 178.392 30.708 178.44 30.684C178.512 30.636 178.56 30.636 178.584 30.684L178.62 30.612C178.668 30.66 178.716 30.672 178.764 30.648H178.8C178.848 30.648 178.896 30.648 178.944 30.648C178.992 30.624 179.028 30.612 179.052 30.612C179.148 30.636 179.244 30.648 179.34 30.648C179.46 30.624 179.556 30.624 179.628 30.648C179.652 30.648 179.676 30.66 179.7 30.684C179.724 30.684 179.736 30.684 179.736 30.684C179.784 30.684 179.832 30.684 179.88 30.684C179.928 30.66 179.964 30.648 179.988 30.648C180.18 30.672 180.348 30.744 180.492 30.864C180.636 30.984 180.804 31.032 180.996 31.008C181.044 31.032 181.092 31.08 181.14 31.152C181.212 31.2 181.284 31.224 181.356 31.224C181.38 31.224 181.392 31.236 181.392 31.26C181.392 31.284 181.404 31.308 181.428 31.332C181.524 31.284 181.608 31.296 181.68 31.368C181.704 31.392 181.716 31.416 181.716 31.44C181.716 31.464 181.728 31.476 181.752 31.476C181.776 31.452 181.788 31.44 181.788 31.44C181.788 31.416 181.788 31.404 181.788 31.404L181.896 31.584L182.184 31.908L182.256 32.124C182.28 32.124 182.292 32.136 182.292 32.16C182.316 32.16 182.328 32.16 182.328 32.16C182.376 32.208 182.412 32.292 182.436 32.412C182.484 32.532 182.52 32.592 182.544 32.592C182.52 32.64 182.52 32.688 182.544 32.736C182.568 32.76 182.58 32.796 182.58 32.844C182.556 32.94 182.568 33.012 182.616 33.06C182.592 33.084 182.568 33.144 182.544 33.24C182.52 33.336 182.496 33.408 182.472 33.456C182.472 33.48 182.484 33.552 182.508 33.672C182.532 33.768 182.52 33.888 182.472 34.032C182.352 34.224 182.184 34.44 181.968 34.68C181.776 34.896 181.644 35.064 181.572 35.184C181.476 35.28 181.38 35.388 181.284 35.508C181.188 35.604 181.08 35.688 180.96 35.76C180.888 35.784 180.84 35.832 180.816 35.904C180.816 35.88 180.804 35.868 180.78 35.868C180.708 35.988 180.624 36.072 180.528 36.12L180.456 36.156C180.432 36.18 180.312 36.312 180.096 36.552C179.904 36.792 179.784 36.912 179.736 36.912L179.628 36.948L178.692 37.74L178.62 37.776C178.596 37.8 178.56 37.848 178.512 37.92C178.488 37.968 178.452 38.004 178.404 38.028C178.308 38.028 178.248 38.04 178.224 38.064C178.2 38.088 178.188 38.1 178.188 38.1C178.212 38.1 178.2 38.112 178.152 38.136C178.128 38.16 178.128 38.172 178.152 38.172C178.2 38.172 178.2 38.184 178.152 38.208C178.128 38.232 178.092 38.244 178.044 38.244C178.02 38.244 177.996 38.256 177.972 38.28C177.876 38.352 177.792 38.448 177.72 38.568C177.672 38.568 177.636 38.556 177.612 38.532L177.576 38.604L177.54 38.64L177.468 38.748C177.396 38.796 177.324 38.844 177.252 38.892C177.18 38.916 177.12 38.952 177.072 39L177 39.108C176.976 39.132 176.928 39.156 176.856 39.18C176.808 39.18 176.772 39.192 176.748 39.216C176.724 39.24 176.664 39.3 176.568 39.396C176.496 39.492 176.448 39.552 176.424 39.576C176.28 39.648 176.148 39.756 176.028 39.9C175.908 40.02 175.764 40.128 175.596 40.224L175.524 40.26C175.5 40.284 175.488 40.308 175.488 40.332C175.344 40.404 175.248 40.536 175.2 40.728C175.152 40.896 175.068 41.028 174.948 41.124C174.948 41.148 174.936 41.172 174.912 41.196C174.936 41.172 174.924 41.172 174.876 41.196C174.876 41.196 174.852 41.232 174.804 41.304C174.756 41.376 174.708 41.424 174.66 41.448C174.612 41.496 174.588 41.58 174.588 41.7H174.552C174.48 41.724 174.444 41.796 174.444 41.916C174.444 41.916 174.444 41.904 174.444 41.88C174.444 41.856 174.42 41.856 174.372 41.88C174.348 41.904 174.312 41.988 174.264 42.132C174.216 42.252 174.168 42.36 174.12 42.456C174.048 42.552 174.012 42.684 174.012 42.852C173.964 42.972 173.904 43.116 173.832 43.284C173.784 43.428 173.772 43.56 173.796 43.68L173.832 43.716C173.832 43.74 173.784 43.776 173.688 43.824C173.616 43.848 173.532 43.86 173.436 43.86ZM172.824 47.892C172.704 47.892 172.524 47.82 172.284 47.676C172.044 47.508 171.828 47.328 171.636 47.136C171.444 46.92 171.348 46.752 171.348 46.632C171.348 46.56 171.528 46.452 171.888 46.308C172.272 46.14 172.668 45.972 173.076 45.804C173.484 45.636 173.736 45.504 173.832 45.408V45.48C173.832 45.576 173.784 45.708 173.688 45.876C173.592 46.044 173.508 46.164 173.436 46.236L173.508 46.488L173.436 46.812C173.364 46.932 173.292 47.148 173.22 47.46C173.148 47.748 173.016 47.892 172.824 47.892Z" fill="white"/>
</svg>
